# Blender v2.79 (sub 0) OBJ File: ''
# www.blender.org
mtllib BigC.mtl
o Cube.011_Cube.013
v -0.404908 0.220368 -0.006032
v -0.349940 0.220368 0.184239
v -0.349940 0.220368 -0.103416
v -0.404908 0.220368 -0.164258
v -0.246682 0.220368 -0.164258
v -0.246682 0.012659 -0.261642
v 0.245487 0.012659 -0.006032
v -0.246682 0.012659 -0.006032
v -0.246682 0.141233 -0.006032
v -0.246682 0.141233 0.235037
v -0.246682 0.012659 0.235037
v 0.463304 0.141233 -0.261642
v 0.463304 0.141233 -0.006032
v 0.463304 0.012659 -0.006032
v 0.245487 0.141233 0.235037
v 0.245487 0.141233 -0.006032
v -0.246682 0.141233 -0.261642
v 0.245487 0.141233 -0.261642
v 0.245487 0.012659 -0.261642
v 0.342871 0.220368 -0.103416
v 0.380319 0.220368 -0.164258
v 0.245487 0.220368 -0.164258
v 0.463304 0.012659 -0.261642
v -0.282974 0.036920 0.035674
v 0.245487 0.012659 0.235037
v -0.502292 0.141233 0.235037
v -0.471457 0.036920 0.035674
v -0.471457 0.131729 0.035674
v 0.463304 0.012659 0.235037
v 0.463304 0.141233 0.235037
v -0.502292 0.141233 -0.006032
v -0.502292 0.012659 -0.261642
v -0.502292 0.012659 -0.006032
v -0.502292 0.012659 0.235037
v 0.342871 0.220368 0.143193
v 0.380319 0.220368 0.143193
v 0.380319 0.220368 -0.006032
v -0.502292 0.141233 -0.261642
v -0.282974 0.131729 0.035674
v -0.404908 0.220368 0.184239
v -0.359115 0.190081 -0.001783
v -0.399648 0.190081 -0.001783
vt 0.998999 0.110110
vt 0.998999 0.002002
vt 0.890891 0.110110
vt 0.554555 0.890891
vt 0.554555 0.943443
vt 0.446446 0.943443
vt 0.224224 0.443443
vt 0.443443 0.224224
vt 0.443443 0.443443
vt 0.446446 0.665666
vt 0.665666 0.665666
vt 0.665666 0.557558
vt 0.224224 0.887888
vt 0.443443 0.887888
vt 0.443443 0.779780
vt 0.668669 0.665666
vt 0.776777 0.446446
vt 0.776777 0.665666
vt 0.446446 0.776777
vt 0.665666 0.776777
vt 0.665666 0.668669
vt 0.943443 0.443443
vt 0.890891 0.443443
vt 0.943443 0.335335
vt 0.443443 0.668669
vt 0.224224 0.776777
vt 0.443443 0.776777
vt 0.887888 0.002002
vt 0.887888 0.221221
vt 0.779780 0.221221
vt 0.667668 0.667668
vt 0.776777 0.776777
vt 0.776777 0.667668
vt 0.224224 0.221221
vt 0.443443 0.002002
vt 0.443443 0.221221
vt 0.221221 0.224224
vt 0.002002 0.443443
vt 0.221221 0.443443
vt 0.554555 0.778779
vt 0.445445 0.887888
vt 0.554555 0.887888
vt 0.002002 0.776777
vt 0.221221 0.776777
vt 0.221221 0.668669
vt 0.223223 0.886887
vt 0.442442 0.778779
vt 0.223223 0.778779
vt 0.221221 0.002002
vt 0.002002 0.221221
vt 0.221221 0.221221
vt 0.113113 0.943443
vt 0.332332 0.943443
vt 0.332332 0.890891
vt 0.889890 0.334334
vt 0.889890 0.442442
vt 0.942442 0.334334
vt 0.887888 0.224224
vt 0.887888 0.443443
vt 0.779780 0.443443
vt 0.668669 0.221221
vt 0.776777 0.002002
vt 0.776777 0.221221
vt 0.779780 0.665666
vt 0.887888 0.446446
vt 0.887888 0.665666
vt 0.221221 0.779780
vt 0.002002 0.887888
vt 0.221221 0.887888
vt 0.223223 0.442442
vt 0.223223 0.223223
vt 0.442442 0.223223
vt 0.997998 0.001001
vt 0.889890 0.109109
vt 0.889890 0.001001
vt 0.220220 0.778779
vt 0.001001 0.778779
vt 0.001001 0.886887
vt 0.886887 0.445445
vt 0.778779 0.664665
vt 0.778779 0.445445
vt 0.668669 0.443443
vt 0.776777 0.224224
vt 0.776777 0.443443
vt 0.445445 0.775776
vt 0.664665 0.667668
vt 0.445445 0.667668
vt 0.886887 0.223223
vt 0.778779 0.442442
vt 0.778779 0.223223
vt 0.442442 0.667668
vt 0.223223 0.667668
vt 0.223223 0.775776
vt 0.886887 0.001001
vt 0.778779 0.220220
vt 0.778779 0.001001
vt 0.223223 0.220220
vt 0.223223 0.001001
vt 0.442442 0.001001
vt 0.220220 0.223223
vt 0.001001 0.223223
vt 0.001001 0.442442
vt 0.001001 0.775776
vt 0.220220 0.667668
vt 0.001001 0.667668
vt 0.667668 0.664665
vt 0.667668 0.445445
vt 0.775776 0.445445
vt 0.890891 0.332332
vt 0.943443 0.224224
vt 0.943443 0.332332
vt 0.220220 0.001001
vt 0.001001 0.001001
vt 0.001001 0.220220
vt 0.664665 0.556557
vt 0.445445 0.556557
vt 0.445445 0.664665
vt 0.667668 0.442442
vt 0.667668 0.223223
vt 0.775776 0.223223
vt 0.445445 0.942442
vt 0.553554 0.889890
vt 0.445445 0.889890
vt 0.667668 0.220220
vt 0.775776 0.001001
vt 0.667668 0.001001
vt 0.221221 0.554555
vt 0.001001 0.445445
vt 0.001001 0.554555
vt 0.554555 0.221221
vt 0.445445 0.001001
vt 0.445445 0.221221
vt 0.223223 0.554555
vt 0.443443 0.445445
vt 0.223223 0.445445
vt 0.556557 0.778779
vt 0.665666 0.887888
vt 0.665666 0.778779
vt 0.554555 0.443443
vt 0.445445 0.223223
vt 0.445445 0.443443
vt 0.221221 0.665666
vt 0.001001 0.556557
vt 0.001001 0.665666
vt 0.665666 0.001001
vt 0.556557 0.221221
vt 0.665666 0.221221
vt 0.223223 0.665666
vt 0.443443 0.556557
vt 0.223223 0.556557
vt 0.667668 0.778779
vt 0.776777 0.887888
vt 0.776777 0.778779
vt 0.778779 0.667668
vt 0.887888 0.776777
vt 0.887888 0.667668
vt 0.665666 0.443443
vt 0.556557 0.223223
vt 0.556557 0.443443
vt 0.445445 0.554555
vt 0.665666 0.445445
vt 0.445445 0.445445
vt 0.331331 0.889890
vt 0.112112 0.889890
vt 0.112112 0.942442
vt 0.889890 0.331331
vt 0.889890 0.223223
vt 0.942442 0.223223
vt 0.943443 0.221221
vt 0.889890 0.112112
vt 0.889890 0.221221
vt 0.887888 0.778779
vt 0.778779 0.887888
vt 0.887888 0.887888
vt 0.001001 0.889890
vt 0.110110 0.998999
vt 0.110110 0.889890
vt 0.443443 0.889890
vt 0.334334 0.943443
vt 0.443443 0.943443
vt 0.667668 0.776777
vt 0.445445 0.778779
vt 0.221221 0.445445
vt 0.554555 0.001001
vt 0.443443 0.554555
vt 0.556557 0.887888
vt 0.554555 0.223223
vt 0.221221 0.556557
vt 0.556557 0.001001
vt 0.443443 0.665666
vt 0.667668 0.887888
vt 0.778779 0.776777
vt 0.665666 0.223223
vt 0.665666 0.554555
vt 0.943443 0.112112
vt 0.778779 0.778779
vt 0.001001 0.998999
vt 0.334334 0.889890
vn 0.0000 1.0000 0.0000
vn 0.0000 -1.0000 -0.0000
vn 1.0000 0.0000 0.0000
vn -1.0000 0.0000 0.0000
vn 0.0000 0.0000 -1.0000
vn -0.9838 0.0000 0.1791
vn -0.6762 0.7064 0.2091
vn -0.7026 0.6798 0.2106
vn 0.9882 0.0000 0.1529
vn 0.6858 0.7022 0.1915
vn 0.9882 0.0000 0.1528
vn 0.0000 0.0000 1.0000
vn 0.0000 0.7761 -0.6306
vn 0.6901 0.7237 0.0000
vn 0.4010 0.8477 -0.3472
vn -0.6306 0.7761 0.0000
vn 0.0104 -0.9384 0.3454
vn -0.3503 0.8605 0.3700
vn 0.3763 0.8424 0.3858
vn 0.3988 0.8414 0.3646
vn -0.3523 0.8671 0.3523
vn -0.0239 -0.9310 0.3641
vn 0.3349 0.8731 0.3544
vn 0.3469 0.8734 0.3419
vn -0.3523 0.8671 -0.3523
vn 0.3650 0.8500 -0.3797
vn 0.7003 0.6876 0.1920
vn -0.2830 -0.4302 0.8572
vn 0.6911 -0.5480 0.4712
vn -0.6706 -0.5717 0.4726
vn 0.2972 -0.4300 0.8525
vn 0.1088 0.6336 0.7660
vn -0.0719 0.5999 0.7968
vn -0.3625 0.8608 0.3573
usemtl None.002
s 1
f 1/1/1 2/2/1 3/3/1
f 4/4/1 3/5/1 5/6/1
f 6/7/2 7/8/2 8/9/2
f 9/10/3 10/11/3 11/12/3
f 12/13/3 13/14/3 14/15/3
f 7/16/4 15/17/4 16/18/4
f 17/19/5 18/20/5 19/21/5
f 20/22/1 21/23/1 22/24/1
f 9/25/3 11/26/3 8/27/3
f 18/28/5 12/29/5 23/30/5
f 10/31/6 24/32/7 11/33/8
f 14/34/2 25/35/2 7/36/2
f 19/37/2 14/38/2 7/39/2
f 26/40/9 27/41/10 28/42/11
f 25/43/12 29/44/12 30/45/12
f 31/46/4 32/47/4 33/48/4
f 8/49/2 34/50/2 33/51/2
f 20/52/1 35/53/1 36/54/1
f 20/55/1 37/56/1 21/57/1
f 38/58/5 17/59/5 6/60/5
f 3/61/1 22/62/1 5/63/1
f 33/64/4 26/65/4 31/66/4
f 38/67/5 6/68/5 32/69/5
f 6/70/2 19/71/2 7/72/2
f 20/73/1 36/74/1 37/75/1
f 31/76/4 38/77/4 32/78/4
f 13/79/3 29/80/3 14/81/3
f 8/82/12 16/83/12 9/84/12
f 17/85/5 19/86/5 6/87/5
f 12/88/3 14/89/3 23/90/3
f 13/91/3 30/92/3 29/93/3
f 18/94/5 23/95/5 19/96/5
f 14/97/2 29/98/2 25/99/2
f 19/100/2 23/101/2 14/102/2
f 25/103/12 30/104/12 15/105/12
f 7/106/4 25/107/4 15/108/4
f 39/109/12 27/110/12 24/111/12
f 8/112/2 11/113/2 34/114/2
f 33/115/4 34/116/4 26/117/4
f 8/118/12 7/119/12 16/120/12
f 4/121/1 1/122/1 3/123/1
f 3/124/1 20/125/1 22/126/1
f 22/127/13 17/128/13 5/129/13
f 13/130/14 21/131/15 37/132/14
f 31/133/16 40/134/17 1/135/16
f 35/136/18 30/137/19 36/138/20
f 16/139/21 35/140/18 20/141/21
f 2/142/22 9/143/23 3/144/24
f 4/145/25 31/146/16 1/147/16
f 9/148/23 20/149/21 3/150/24
f 18/151/13 21/152/15 12/153/26
f 36/154/20 13/155/14 37/156/14
f 34/157/27 24/158/7 27/159/10
f 4/160/25 17/161/13 38/162/25
f 1/163/1 40/164/1 2/165/1
f 39/166/12 28/167/12 27/168/12
f 41/169/28 28/170/29 39/171/30
f 40/172/17 28/173/29 42/174/31
f 2/175/22 39/176/30 10/177/32
f 40/178/17 41/179/28 2/180/22
f 10/31/6 39/181/6 24/32/7
f 26/40/9 34/182/27 27/41/10
f 22/127/13 18/183/13 17/128/13
f 13/130/14 12/184/26 21/131/15
f 31/133/16 26/185/33 40/134/17
f 35/136/18 15/186/34 30/137/19
f 16/139/21 15/187/34 35/140/18
f 2/142/22 10/188/32 9/143/23
f 4/145/25 38/189/25 31/146/16
f 9/148/23 16/190/21 20/149/21
f 18/151/13 22/191/13 21/152/15
f 36/154/20 30/192/19 13/155/14
f 34/157/27 11/193/8 24/158/7
f 4/160/25 5/194/13 17/161/13
f 41/169/28 42/195/31 28/170/29
f 40/172/17 26/196/33 28/173/29
f 2/175/22 41/197/28 39/176/30
f 40/178/17 42/198/31 41/179/28
