# Blender v2.79 (sub 0) OBJ File: ''
# www.blender.org
mtllib BigH.mtl
o Cube.012
v -0.436894 0.034194 0.428188
v -0.436894 0.168584 0.276861
v -0.436894 0.096708 0.276861
v 0.417405 0.034194 0.428188
v -0.436894 0.059608 0.428188
v 0.417405 0.034194 -0.422365
v 0.417405 0.168584 -0.269132
v 0.417405 0.096708 -0.269132
v -0.436894 0.034194 -0.422365
v 0.417405 0.059608 -0.422365
v -0.436894 0.168584 -0.269132
v -0.436894 0.000000 -0.422365
v 0.417405 0.025414 -0.422365
v 0.417405 0.000000 -0.422365
v -0.452487 0.025253 -0.437888
v -0.436894 0.025414 -0.422365
v 0.417405 0.071876 -0.269132
v 0.417405 0.000000 -0.269132
v 0.432998 0.071422 0.286828
v 0.417405 0.025414 0.428188
v 0.417405 0.071876 0.276861
v 0.417405 -0.000000 0.428188
v -0.436894 0.025414 0.428188
v -0.436894 -0.000000 0.428188
v 0.432998 0.025253 0.443712
v -0.436894 0.071876 0.276861
v -0.436894 -0.000000 0.276861
v -0.452487 0.071422 -0.279099
v -0.436894 0.071876 -0.269132
v 0.432998 0.034354 -0.437888
v 0.432998 0.025253 -0.437888
v 0.432998 0.097162 -0.279099
v 0.432998 0.071422 -0.279099
v -0.452487 0.034354 0.443712
v -0.452487 0.025253 0.443712
v -0.452487 0.097162 0.286828
v -0.452487 0.071422 0.286828
v 0.432998 0.097162 0.286828
v 0.417405 0.096708 0.276861
v -0.009744 0.211709 0.002912
v 0.195249 0.168584 0.276861
v 0.195249 0.211709 0.002912
v -0.452487 0.097162 -0.279099
v -0.436894 0.096708 -0.269132
v -0.214738 0.168584 -0.269132
v -0.452487 0.034354 -0.437888
v -0.222220 0.071422 0.286828
v 0.432998 0.034354 0.443712
v 0.202731 0.071422 -0.279099
v 0.195249 0.071876 -0.269132
v 0.195249 0.096708 -0.269132
v -0.436894 0.000000 -0.269132
v -0.222220 0.097162 -0.279099
v -0.214738 -0.000000 0.276861
v 0.417405 -0.000000 0.276861
v 0.417405 0.168584 0.276861
v 0.417405 0.059608 0.428188
v -0.436894 0.059608 -0.422365
v -0.222220 0.097162 0.286828
v 0.202731 0.097162 0.286828
v 0.195249 0.096708 0.276861
v -0.214738 0.096708 0.276861
v -0.214738 0.096708 -0.269132
v -0.222220 0.071422 -0.279099
v 0.202731 0.071422 0.286828
v -0.214738 0.071876 -0.269132
v -0.214738 0.071876 0.276861
v -0.214738 0.000000 -0.269132
v 0.195249 0.071876 0.276861
v 0.195249 0.000000 -0.269132
v 0.195249 -0.000000 0.276861
v 0.202731 0.097162 -0.279099
v -0.214738 0.211709 0.002912
v -0.214738 0.168584 0.276861
v 0.195249 0.168584 -0.269132
vt 0.573333 0.357826
vt 0.510000 0.511739
vt 0.573333 0.511739
vt 0.490000 0.424783
vt 0.176667 0.357826
vt 0.176667 0.424783
vt 0.656667 0.010000
vt 0.593333 0.163913
vt 0.656667 0.163913
vt 0.490000 0.511739
vt 0.176667 0.444783
vt 0.176667 0.511739
vt 0.343333 0.010000
vt 0.490000 0.337826
vt 0.490000 0.010000
vt 0.490000 0.598696
vt 0.176667 0.531739
vt 0.176667 0.598696
vt 0.593333 0.183913
vt 0.615000 0.511739
vt 0.615000 0.183913
vt 0.656667 0.598696
vt 0.510000 0.531739
vt 0.510000 0.598696
vt 0.843333 0.010000
vt 0.865000 0.163913
vt 0.865000 0.010000
vt 0.490000 0.685652
vt 0.176667 0.618696
vt 0.176667 0.685652
vt 0.635000 0.183913
vt 0.656667 0.511739
vt 0.656667 0.183913
vt 0.656667 0.685652
vt 0.510000 0.618696
vt 0.510000 0.685652
vt 0.843333 0.183913
vt 0.865000 0.337826
vt 0.865000 0.183913
vt 0.656667 0.816087
vt 0.343333 0.792609
vt 0.343333 0.816087
vt 0.865000 0.357826
vt 0.843333 0.511739
vt 0.865000 0.511739
vt 0.656667 0.859565
vt 0.343333 0.836087
vt 0.343333 0.859565
vt 0.865000 0.531739
vt 0.843333 0.685652
vt 0.865000 0.685652
vt 0.823333 0.879565
vt 0.676667 0.903043
vt 0.823333 0.903043
vt 0.676667 0.010000
vt 0.698333 0.337826
vt 0.698333 0.010000
vt 0.156667 0.923043
vt 0.010000 0.946522
vt 0.156667 0.946522
vt 0.676667 0.357826
vt 0.698333 0.685652
vt 0.698333 0.357826
vt 0.323333 0.946522
vt 0.176667 0.923043
vt 0.176667 0.946522
vt 0.166666 0.173913
vt 0.323333 0.010000
vt 0.166666 0.010000
vt 0.865000 0.705652
vt 0.843333 0.859565
vt 0.865000 0.859565
vt 0.843333 0.879565
vt 0.906667 0.946522
vt 0.906667 0.879565
vt 0.490000 0.946522
vt 0.343333 0.923043
vt 0.343333 0.946522
vt 0.885000 0.792609
vt 0.906667 0.859565
vt 0.906667 0.792609
vt 0.656667 0.946522
vt 0.510000 0.923043
vt 0.510000 0.946522
vt 0.948333 0.096957
vt 0.926667 0.163913
vt 0.948333 0.163913
vt 0.823333 0.946522
vt 0.676667 0.923043
vt 0.676667 0.946522
vt 0.885000 0.010000
vt 0.948333 0.076957
vt 0.948333 0.010000
vt 0.781667 0.010000
vt 0.718333 0.163913
vt 0.781667 0.163913
vt 0.073333 0.966522
vt 0.010000 0.990000
vt 0.073333 0.990000
vt 0.906667 0.096957
vt 0.885000 0.250870
vt 0.906667 0.250870
vt 0.885000 0.270870
vt 0.948333 0.337826
vt 0.948333 0.270870
vt 0.823333 0.772609
vt 0.676667 0.705652
vt 0.676667 0.772609
vt 0.010000 0.357826
vt 0.156667 0.685652
vt 0.156667 0.357826
vt 0.823333 0.859565
vt 0.676667 0.792609
vt 0.676667 0.859565
vt 0.885000 0.357826
vt 0.948333 0.424783
vt 0.948333 0.357826
vt 0.781667 0.183913
vt 0.718333 0.337826
vt 0.781667 0.337826
vt 0.156667 0.966522
vt 0.093333 0.990000
vt 0.156667 0.990000
vt 0.718333 0.357826
vt 0.740000 0.685652
vt 0.740000 0.357826
vt 0.323333 0.879565
vt 0.010000 0.903043
vt 0.323333 0.903043
vt 0.781667 0.357826
vt 0.760000 0.685652
vt 0.781667 0.685652
vt 0.656667 0.903043
vt 0.343333 0.879565
vt 0.343333 0.903043
vt 0.801667 0.010000
vt 0.823333 0.337826
vt 0.823333 0.010000
vt 0.323333 0.772609
vt 0.010000 0.705652
vt 0.010000 0.772609
vt 0.801667 0.357826
vt 0.823333 0.685652
vt 0.823333 0.357826
vt 0.656667 0.772609
vt 0.343333 0.705652
vt 0.343333 0.772609
vt 0.573333 0.010000
vt 0.510000 0.337826
vt 0.573333 0.337826
vt 0.323333 0.859565
vt 0.010000 0.792609
vt 0.010000 0.859565
vt 0.926667 0.183913
vt 0.948333 0.250870
vt 0.948333 0.183913
vt 0.240000 0.966522
vt 0.176667 0.990000
vt 0.240000 0.990000
vt 0.885000 0.444783
vt 0.948333 0.511739
vt 0.948333 0.444783
vt 0.885000 0.531739
vt 0.948333 0.598696
vt 0.948333 0.531739
vt 0.926667 0.792609
vt 0.948333 0.859565
vt 0.948333 0.792609
vt 0.323333 0.990000
vt 0.260000 0.966522
vt 0.260000 0.990000
vt 0.885000 0.618696
vt 0.948333 0.685652
vt 0.948333 0.618696
vt 0.948333 0.879565
vt 0.926667 0.946522
vt 0.948333 0.946522
vt 0.406667 0.966522
vt 0.343333 0.990000
vt 0.406667 0.990000
vt 0.968333 0.010000
vt 0.990000 0.076957
vt 0.990000 0.010000
vt 0.490000 0.990000
vt 0.426667 0.966522
vt 0.426667 0.990000
vt 0.885000 0.705652
vt 0.948333 0.772609
vt 0.948333 0.705652
vt 0.510000 0.357826
vt 0.490000 0.357826
vt 0.593333 0.010000
vt 0.490000 0.444783
vt 0.343333 0.337826
vt 0.490000 0.531739
vt 0.593333 0.511739
vt 0.656667 0.531739
vt 0.843333 0.163913
vt 0.490000 0.618696
vt 0.635000 0.511739
vt 0.656667 0.618696
vt 0.843333 0.337826
vt 0.656667 0.792609
vt 0.843333 0.357826
vt 0.656667 0.836087
vt 0.843333 0.531739
vt 0.676667 0.879565
vt 0.676667 0.337826
vt 0.010000 0.923043
vt 0.676667 0.685652
vt 0.323333 0.923043
vt 0.166666 0.337826
vt 0.323333 0.337826
vt 0.843333 0.705652
vt 0.843333 0.946522
vt 0.490000 0.923043
vt 0.885000 0.859565
vt 0.656667 0.923043
vt 0.926667 0.096957
vt 0.823333 0.923043
vt 0.885000 0.076957
vt 0.718333 0.010000
vt 0.010000 0.966522
vt 0.885000 0.096957
vt 0.885000 0.337826
vt 0.823333 0.705652
vt 0.010000 0.685652
vt 0.823333 0.792609
vt 0.885000 0.424783
vt 0.718333 0.183913
vt 0.093333 0.966522
vt 0.718333 0.685652
vt 0.010000 0.879565
vt 0.760000 0.357826
vt 0.656667 0.879565
vt 0.801667 0.337826
vt 0.323333 0.705652
vt 0.801667 0.685652
vt 0.656667 0.705652
vt 0.510000 0.173913
vt 0.166666 0.792609
vt 0.926667 0.250870
vt 0.176667 0.966522
vt 0.885000 0.511739
vt 0.885000 0.598696
vt 0.926667 0.859565
vt 0.323333 0.966522
vt 0.885000 0.685652
vt 0.926667 0.879565
vt 0.343333 0.966522
vt 0.968333 0.076957
vt 0.490000 0.966522
vt 0.885000 0.772609
vt 0.010000 0.337826
vt 0.010000 0.010000
vt 0.510000 0.010000
vt 0.323333 0.792609
vn -1.0000 0.0000 0.0000
vn 0.0000 0.0000 1.0000
vn 1.0000 0.0000 0.0000
vn 0.0000 0.0000 -1.0000
vn 0.0000 0.8149 -0.5796
vn 0.0000 -0.9999 0.0104
vn 0.1631 -0.9433 -0.2890
vn 0.2570 -0.9269 -0.2733
vn 0.1578 -0.9440 -0.2898
vn 0.0000 -0.9999 -0.0104
vn -0.1609 -0.9447 0.2859
vn -0.2543 -0.9285 0.2705
vn -0.1557 -0.9453 0.2866
vn 0.2664 0.8910 0.3675
vn 0.3507 0.8692 0.3485
vn 0.2615 0.8921 0.3685
vn 0.0000 0.9999 -0.0103
vn -0.2640 0.8933 -0.3639
vn -0.3476 0.8717 -0.3453
vn -0.2592 0.8943 -0.3648
vn 0.0000 0.9999 0.0103
vn -0.3507 0.8692 0.3485
vn -0.2664 0.8910 0.3675
vn -0.2615 0.8921 0.3685
vn -0.0465 0.9972 0.0592
vn 0.0000 0.9878 0.1555
vn 0.0000 1.0000 -0.0005
vn 0.3476 0.8717 -0.3453
vn 0.2640 0.8933 -0.3639
vn 0.2592 0.8943 -0.3648
vn 0.0000 0.9990 -0.0455
vn -0.2570 -0.9269 -0.2733
vn -0.1631 -0.9433 -0.2890
vn -0.1578 -0.9440 -0.2898
vn 0.2543 -0.9285 0.2705
vn 0.1609 -0.9447 0.2859
vn 0.1557 -0.9453 0.2866
vn 0.0000 0.8115 0.5844
vn 0.0000 -0.9990 0.0455
vn -0.0606 0.9982 0.0000
vn 0.0606 0.9982 0.0000
vn 0.0606 -0.9982 -0.0000
vn -0.0606 -0.9982 -0.0000
vn 0.0000 0.9990 0.0455
vn 0.0000 0.9990 0.0452
vn 0.0000 -0.9990 -0.0455
vn -0.0000 0.9990 -0.0452
vn -0.0000 -0.9990 -0.0450
vn 0.2617 -0.9259 -0.2725
vn -0.2589 -0.9275 0.2697
vn 0.3549 0.8679 0.3475
vn -0.3517 0.8705 -0.3443
vn -0.3549 0.8680 0.3475
vn 0.0463 0.9971 -0.0602
vn 0.3517 0.8705 -0.3443
vn -0.2617 -0.9259 -0.2725
vn 0.2589 -0.9275 0.2697
vn -0.0000 -0.9990 0.0450
vn 0.0000 0.9877 -0.1566
usemtl None.001
s 1
f 1/1/1 2/2/1 3/3/1
f 4/4/2 5/5/2 1/6/2
f 6/7/3 7/8/3 8/9/3
f 9/10/4 10/11/4 6/12/4
f 10/13/5 11/14/5 7/15/5
f 12/16/4 13/17/4 14/18/4
f 15/19/6 13/20/6 16/21/6
f 14/22/3 17/23/3 18/24/3
f 19/25/7 20/26/8 21/27/9
f 22/28/2 23/29/2 24/30/2
f 25/31/10 23/32/10 20/33/10
f 24/34/1 26/35/1 27/36/1
f 28/37/11 16/38/12 29/39/13
f 15/40/4 30/41/4 31/42/4
f 31/43/3 32/44/3 33/45/3
f 25/46/2 34/47/2 35/48/2
f 35/49/1 36/50/1 37/51/1
f 36/52/14 1/53/15 3/54/16
f 34/55/17 4/56/17 1/57/17
f 32/58/18 6/59/19 8/60/20
f 30/61/21 9/62/21 6/63/21
f 4/64/22 38/65/23 39/66/24
f 40/67/25 41/68/26 42/69/27
f 9/70/28 43/71/29 44/72/30
f 44/73/2 45/74/2 11/75/2
f 28/76/1 46/77/1 15/78/1
f 36/79/4 47/80/4 37/81/4
f 19/82/3 48/83/3 25/84/3
f 17/85/31 49/86/31 50/87/31
f 23/88/32 37/89/33 26/90/34
f 7/91/2 51/92/2 8/93/2
f 52/94/1 16/95/1 12/96/1
f 28/97/2 53/98/2 43/99/2
f 13/100/35 33/101/36 17/102/37
f 26/103/4 54/104/4 27/105/4
f 55/106/3 20/107/3 22/108/3
f 56/109/38 5/110/38 57/111/38
f 39/112/3 57/113/3 4/114/3
f 39/115/4 41/116/4 56/117/4
f 44/118/1 58/119/1 9/120/1
f 3/121/39 59/122/39 36/123/39
f 60/124/40 51/125/40 61/126/40
f 53/127/41 62/128/41 63/129/41
f 47/130/1 53/131/1 64/132/1
f 49/133/3 60/134/3 65/135/3
f 47/136/42 66/137/42 67/138/42
f 54/139/1 66/140/1 68/141/1
f 49/142/43 69/143/43 50/144/43
f 70/145/3 69/146/3 71/147/3
f 51/148/3 41/149/3 61/150/3
f 62/151/1 45/152/1 63/153/1
f 21/154/44 65/155/44 19/156/45
f 19/157/4 60/158/4 38/159/4
f 2/160/4 62/161/4 3/162/4
f 55/163/4 69/164/4 21/165/4
f 32/166/2 49/167/2 33/168/2
f 39/169/39 60/170/39 61/171/39
f 17/172/2 70/173/2 18/174/2
f 26/175/44 47/176/44 67/177/44
f 8/178/46 72/179/46 32/180/46
f 29/181/31 64/182/31 28/183/47
f 44/184/46 53/185/46 63/186/48
f 52/187/2 66/188/2 29/189/2
f 1/1/1 5/190/1 2/2/1
f 4/4/2 57/191/2 5/5/2
f 6/7/3 10/192/3 7/8/3
f 9/10/4 58/193/4 10/11/4
f 10/13/5 58/194/5 11/14/5
f 12/16/4 16/195/4 13/17/4
f 15/19/6 31/196/6 13/20/6
f 14/22/3 13/197/3 17/23/3
f 19/25/7 25/198/49 20/26/8
f 22/28/2 20/199/2 23/29/2
f 25/31/10 35/200/10 23/32/10
f 24/34/1 23/201/1 26/35/1
f 28/37/11 15/202/50 16/38/12
f 15/40/4 46/203/4 30/41/4
f 31/43/3 30/204/3 32/44/3
f 25/46/2 48/205/2 34/47/2
f 35/49/1 34/206/1 36/50/1
f 36/52/14 34/207/51 1/53/15
f 34/55/17 48/208/17 4/56/17
f 32/58/18 30/209/52 6/59/19
f 30/61/21 46/210/21 9/62/21
f 4/64/22 48/211/53 38/65/23
f 40/67/54 73/212/27 74/213/26
f 9/70/28 46/214/55 43/71/29
f 44/73/2 63/215/2 45/74/2
f 28/76/1 43/216/1 46/77/1
f 36/79/4 59/217/4 47/80/4
f 19/82/3 38/218/3 48/83/3
f 17/85/31 33/219/47 49/86/31
f 23/88/32 35/220/56 37/89/33
f 7/91/2 75/221/2 51/92/2
f 52/94/1 29/222/1 16/95/1
f 28/97/2 64/223/2 53/98/2
f 13/100/35 31/224/57 33/101/36
f 26/103/4 67/225/4 54/104/4
f 55/106/3 21/226/3 20/107/3
f 56/109/38 2/227/38 5/110/38
f 39/112/3 56/228/3 57/113/3
f 39/115/4 61/229/4 41/116/4
f 44/118/1 11/230/1 58/119/1
f 3/121/39 62/231/58 59/122/39
f 60/124/40 72/232/40 51/125/40
f 53/127/41 59/233/41 62/128/41
f 47/130/1 59/234/1 53/131/1
f 49/133/3 72/235/3 60/134/3
f 47/136/42 64/236/42 66/137/42
f 54/139/1 67/237/1 66/140/1
f 49/142/43 65/238/43 69/143/43
f 70/145/3 50/239/3 69/146/3
f 51/148/3 42/240/3 41/149/3
f 62/151/1 73/241/1 45/152/1
f 21/154/44 69/242/44 65/155/44
f 19/157/4 65/243/4 60/158/4
f 2/160/4 74/244/4 62/161/4
f 55/163/4 71/245/4 69/164/4
f 32/166/2 72/246/2 49/167/2
f 39/169/39 38/247/39 60/170/39
f 17/172/2 50/248/2 70/173/2
f 26/175/44 37/249/45 47/176/44
f 8/178/46 51/250/46 72/179/46
f 29/181/31 66/251/31 64/182/31
f 44/184/46 43/252/46 53/185/46
f 52/187/2 68/253/2 66/188/2
f 45/254/59 40/67/25 75/255/59
f 75/255/59 40/67/25 42/69/27
f 40/67/54 74/213/26 41/68/26
f 51/148/3 75/256/3 42/240/3
f 62/151/1 74/257/1 73/241/1
f 45/254/59 73/212/27 40/67/54
