# Blender v2.79 (sub 0) OBJ File: 'RunningOutOfSpace.blend'
# www.blender.org
mtllib Bucket.mtl
o Cylinder.001
v 0.000000 0.023206 -0.050158
v 0.000000 0.162386 -0.070153
v 0.013686 0.162386 -0.068805
v 0.009785 0.023206 -0.049194
v 0.026846 0.162386 -0.064813
v 0.019195 0.023206 -0.046340
v 0.038975 0.162386 -0.058330
v 0.027866 0.023206 -0.041705
v 0.049606 0.162386 -0.049606
v 0.035467 0.023206 -0.035467
v 0.058330 0.162386 -0.038975
v 0.041705 0.023206 -0.027867
v 0.064813 0.162386 -0.026847
v 0.046340 0.023206 -0.019195
v 0.068805 0.162386 -0.013686
v 0.049194 0.023206 -0.009786
v 0.070153 0.162386 0.000000
v 0.050158 0.023206 0.000000
v 0.068805 0.162386 0.013686
v 0.049194 0.023206 0.009785
v 0.064813 0.162386 0.026846
v 0.046340 0.023206 0.019194
v 0.058330 0.162386 0.038975
v 0.041705 0.023206 0.027866
v 0.049606 0.162386 0.049605
v 0.035467 0.023206 0.035467
v 0.038975 0.162386 0.058330
v 0.027866 0.023206 0.041705
v 0.026846 0.162386 0.064813
v 0.019195 0.023206 0.046340
v 0.013686 0.162386 0.068805
v 0.009785 0.023206 0.049194
v 0.000000 0.162386 0.070153
v 0.000000 0.023206 0.050158
v -0.013686 0.162386 0.068805
v -0.009785 0.023206 0.049194
v -0.026846 0.162386 0.064812
v -0.019195 0.023206 0.046340
v -0.038975 0.162386 0.058330
v -0.027866 0.023206 0.041704
v -0.049606 0.162386 0.049605
v -0.035467 0.023206 0.035467
v -0.058330 0.162386 0.038975
v -0.041705 0.023206 0.027866
v -0.064813 0.162386 0.026846
v -0.046340 0.023206 0.019194
v -0.068805 0.162386 0.013686
v -0.049194 0.023206 0.009785
v -0.070153 0.162386 0.000000
v -0.050158 0.023206 0.000000
v -0.068805 0.162386 -0.013687
v -0.049194 0.023206 -0.009786
v -0.064813 0.162386 -0.026847
v -0.046340 0.023206 -0.019195
v -0.058330 0.162386 -0.038975
v -0.041705 0.023206 -0.027867
v -0.049605 0.162386 -0.049606
v -0.035467 0.023206 -0.035467
v -0.038975 0.162386 -0.058330
v -0.027866 0.023206 -0.041705
v -0.026846 0.162386 -0.064813
v -0.019195 0.023206 -0.046340
v 0.023077 0.162386 -0.055713
v 0.033502 0.162386 -0.050140
v -0.013686 0.162386 -0.068805
v -0.009785 0.023206 -0.049194
v 0.059144 0.162386 -0.011765
v 0.055712 0.162386 -0.023077
v 0.039833 0.028852 -0.016500
v 0.042287 0.028852 -0.008412
v 0.050140 0.162386 0.033502
v 0.042640 0.162386 0.042640
v -0.042640 0.162386 0.042640
v -0.050140 0.162386 0.033502
v -0.033502 0.162386 -0.050140
v -0.023077 0.162386 -0.055713
v 0.060303 0.162386 0.000000
v 0.000000 0.162386 0.060302
v -0.011764 0.162386 0.059144
v -0.059144 0.162386 -0.011765
v -0.055712 0.162386 -0.023077
v 0.042640 0.162386 -0.042641
v 0.033502 0.162386 0.050139
v -0.055712 0.162386 0.023076
v -0.011764 0.162386 -0.059144
v 0.059144 0.162386 0.011764
v -0.023077 0.162386 0.055712
v -0.050140 0.162386 -0.033503
v 0.050140 0.162386 -0.033503
v 0.023077 0.162386 0.055712
v -0.059144 0.162386 0.011764
v 0.000000 0.162386 -0.060303
v 0.011764 0.162386 -0.059144
v 0.055712 0.162386 0.023077
v -0.033502 0.162386 0.050139
v -0.042640 0.162386 -0.042641
v 0.011764 0.162386 0.059144
v -0.060303 0.162386 0.000000
v 0.008411 0.028852 -0.042287
v 0.000000 0.028852 -0.043116
v -0.008411 0.028852 -0.042287
v -0.016499 0.028852 -0.039834
v -0.023953 0.028852 -0.035849
v -0.030487 0.028852 -0.030487
v -0.035849 0.028852 -0.023954
v -0.039833 0.028852 -0.016500
v -0.042287 0.028852 -0.008412
v -0.043115 0.028852 0.000000
v -0.042287 0.028852 0.008411
v -0.039833 0.028852 0.016499
v -0.035849 0.028852 0.023953
v -0.030487 0.028852 0.030487
v -0.023953 0.028852 0.035849
v -0.016499 0.028852 0.039833
v -0.008411 0.028852 0.042286
v 0.000000 0.028852 0.043115
v 0.008411 0.028852 0.042286
v 0.016500 0.028852 0.039833
v 0.023954 0.028852 0.035849
v 0.030487 0.028852 0.030487
v 0.035849 0.028852 0.023953
v 0.039833 0.028852 0.016499
v 0.042287 0.028852 0.008411
v 0.043115 0.028852 0.000000
v 0.035849 0.028852 -0.023954
v 0.030487 0.028852 -0.030487
v 0.023954 0.028852 -0.035849
v 0.016500 0.028852 -0.039834
vt 0.373480 0.342994
vt 0.370162 0.000222
vt 0.393513 0.342877
vt 0.415773 0.342790
vt 0.434346 0.000025
vt 0.439402 0.342736
vt 0.463497 0.342718
vt 0.468044 0.000000
vt 0.487127 0.342736
vt 0.501094 0.000025
vt 0.509386 0.342790
vt 0.560247 0.000222
vt 0.529418 0.342877
vt 0.546457 0.342994
vt 0.615412 0.342994
vt 0.612094 0.000222
vt 0.635445 0.342877
vt 0.657703 0.342790
vt 0.643226 0.000100
vt 0.681334 0.342736
vt 0.709974 0.000000
vt 0.705428 0.342718
vt 0.743026 0.000025
vt 0.729060 0.342736
vt 0.751318 0.342790
vt 0.802179 0.000222
vt 0.771352 0.342877
vt 0.788388 0.342994
vt 0.031337 0.686454
vt 0.028019 0.343682
vt 0.051370 0.686337
vt 0.073630 0.686250
vt 0.092203 0.343486
vt 0.097261 0.686196
vt 0.121354 0.686178
vt 0.125902 0.343460
vt 0.144985 0.686196
vt 0.190085 0.343561
vt 0.167245 0.686250
vt 0.218104 0.343682
vt 0.187277 0.686337
vt 0.204314 0.686454
vt 0.342143 0.343380
vt 0.393515 0.685871
vt 0.373480 0.685988
vt 0.370164 0.343216
vt 0.415773 0.685784
vt 0.434346 0.343019
vt 0.439404 0.685730
vt 0.468045 0.342994
vt 0.463497 0.685712
vt 0.487128 0.685730
vt 0.501094 0.343019
vt 0.509386 0.685784
vt 0.303951 0.062258
vt 0.301388 0.101806
vt 0.285294 0.077630
vt 0.560247 0.343216
vt 0.529420 0.685871
vt 0.546457 0.685988
vt 0.975912 0.671257
vt 0.973280 0.343173
vt 0.999997 0.671380
vt 0.038193 0.062258
vt 0.077332 0.057068
vt 0.056850 0.077631
vt 0.062022 0.305123
vt 0.101418 0.302547
vt 0.090039 0.323916
vt 0.322673 0.253075
vt 0.312473 0.214788
vt 0.335569 0.221820
vt 0.187920 0.000000
vt 0.156588 0.024112
vt 0.154222 0.000000
vt 0.000000 0.188645
vt 0.029672 0.214788
vt 0.006574 0.221822
vt 0.220974 0.336861
vt 0.240727 0.302546
vt 0.252106 0.323915
vt 0.264812 0.057069
vt 0.280124 0.038337
vt 0.019470 0.090386
vt 0.040758 0.101808
vt 0.121173 0.336861
vt 0.128181 0.313674
vt 0.342143 0.188643
vt 0.318123 0.186268
vt 0.121172 0.006600
vt 0.128179 0.029786
vt 0.019472 0.253074
vt 0.040758 0.241654
vt 0.264813 0.286392
vt 0.280124 0.305121
vt 0.240727 0.040913
vt 0.252104 0.019545
vt 0.029672 0.128672
vt 0.006574 0.121640
vt 0.154224 0.343460
vt 0.156590 0.319347
vt 0.335569 0.121638
vt 0.318123 0.157191
vt 0.312472 0.128672
vt 0.342143 0.154816
vt 0.090039 0.019545
vt 0.101416 0.040915
vt 0.038192 0.281203
vt 0.056852 0.265830
vt 0.303953 0.281200
vt 0.285295 0.265829
vt 0.220972 0.006599
vt 0.213965 0.029787
vt 0.024020 0.157193
vt 0.000000 0.154817
vt 0.185555 0.319348
vt 0.187921 0.343460
vt 0.322673 0.090386
vt 0.062019 0.038339
vt 0.077333 0.286391
vt 0.301387 0.241652
vt 0.185556 0.024113
vt 0.024022 0.186270
vt 0.213967 0.313674
vt 0.380258 0.873511
vt 0.365617 0.724249
vt 0.514305 0.709553
vt 0.920743 0.999690
vt 0.937173 0.671597
vt 0.949154 0.999755
vt 0.604558 0.999859
vt 0.616875 0.671773
vt 0.631521 0.671672
vt 0.975915 0.999859
vt 0.956306 0.671672
vt 0.648740 0.671597
vt 0.628642 0.999754
vt 0.973527 0.671773
vt 1.000000 1.000000
vt 0.655406 0.999690
vt 0.667874 0.671551
vt 0.792037 0.343150
vt 0.779964 0.671245
vt 0.765319 0.671357
vt 0.688186 0.671536
vt 0.683814 0.999668
vt 0.748098 0.671445
vt 0.767951 0.343273
vt 0.712781 0.999690
vt 0.708898 0.671551
vt 0.741190 0.343357
vt 0.728964 0.671505
vt 0.729210 0.671597
vt 0.741190 0.999754
vt 0.708652 0.671536
vt 0.712780 0.343400
vt 0.748343 0.671672
vt 0.767952 0.999859
vt 0.836603 0.671257
vt 0.839236 0.343173
vt 0.856456 0.343085
vt 0.683812 0.343400
vt 0.687942 0.671536
vt 0.765564 0.671773
vt 0.792038 1.000000
vt 0.875591 0.343025
vt 0.863365 0.671173
vt 0.655403 0.343357
vt 0.667629 0.671505
vt 0.839482 0.671672
vt 0.812521 0.999859
vt 0.891774 0.671130
vt 0.895904 0.342994
vt 0.648494 0.671445
vt 0.628642 0.343273
vt 0.856703 0.671598
vt 0.836604 0.999755
vt 0.920740 0.671130
vt 0.916614 0.342994
vt 0.604557 0.343150
vt 0.631275 0.671357
vt 0.875836 0.671551
vt 0.863368 0.999690
vt 0.936926 0.343025
vt 0.949151 0.671173
vt 0.616630 0.671245
vt 0.584075 0.342994
vt 0.896148 0.671536
vt 0.891777 0.999668
vt 0.956059 0.343085
vt 0.916859 0.671551
vt 0.342143 0.000386
vt 0.401294 0.000100
vt 0.532227 0.000100
vt 0.584075 0.000386
vt 0.676278 0.000025
vt 0.774160 0.000100
vt 0.826007 0.000386
vt 0.000000 0.343846
vt 0.059152 0.343561
vt 0.158951 0.343486
vt 0.241932 0.343846
vt 0.401296 0.343094
vt 0.532228 0.343094
vt 0.584075 0.343380
vt 0.528948 0.858814
vt 0.514300 0.873515
vt 0.457635 0.897076
vt 0.497081 0.885066
vt 0.477947 0.893020
vt 0.436924 0.897074
vt 0.416611 0.893018
vt 0.397477 0.885063
vt 0.365613 0.858811
vt 0.354107 0.841522
vt 0.346182 0.822316
vt 0.342143 0.801925
vt 0.342143 0.781135
vt 0.346184 0.760743
vt 0.354111 0.741535
vt 0.380263 0.709550
vt 0.397482 0.697999
vt 0.416616 0.690045
vt 0.436930 0.685988
vt 0.457640 0.685988
vt 0.477951 0.690045
vt 0.497086 0.698002
vt 0.528950 0.724254
vt 0.540454 0.741540
vt 0.548381 0.760749
vt 0.552420 0.781140
vt 0.552420 0.801930
vt 0.548378 0.822320
vt 0.540453 0.841527
vt 0.584075 1.000000
vt 0.812519 0.342994
vt 0.812519 0.671380
vt 0.824839 0.671773
vn 0.0971 -0.1415 -0.9852
vn 0.0970 -0.1415 -0.9852
vn 0.2874 -0.1415 -0.9473
vn 0.2873 -0.1415 -0.9473
vn 0.4667 -0.1415 -0.8730
vn 0.4666 -0.1415 -0.8730
vn 0.6280 -0.1415 -0.7653
vn 0.6280 -0.1415 -0.7652
vn 0.7652 -0.1415 -0.6280
vn 0.7652 -0.1415 -0.6281
vn 0.8730 -0.1415 -0.4667
vn 0.8731 -0.1415 -0.4666
vn 0.9473 -0.1415 -0.2873
vn 0.9852 -0.1415 -0.0970
vn 0.9852 -0.1415 0.0971
vn 0.9852 -0.1415 0.0970
vn 0.9473 -0.1415 0.2874
vn 0.9473 -0.1415 0.2873
vn 0.8730 -0.1415 0.4666
vn 0.8731 -0.1415 0.4666
vn 0.7652 -0.1415 0.6280
vn 0.6280 -0.1415 0.7652
vn 0.4666 -0.1415 0.8730
vn 0.4667 -0.1415 0.8730
vn 0.2873 -0.1415 0.9473
vn 0.2874 -0.1415 0.9473
vn 0.0970 -0.1415 0.9852
vn 0.0971 -0.1415 0.9852
vn -0.0971 -0.1415 0.9852
vn -0.0970 -0.1415 0.9852
vn -0.2874 -0.1415 0.9473
vn -0.2873 -0.1415 0.9473
vn -0.4667 -0.1415 0.8730
vn -0.4666 -0.1415 0.8731
vn -0.6280 -0.1415 0.7652
vn -0.6280 -0.1415 0.7653
vn -0.6279 -0.1415 0.7653
vn -0.7652 -0.1415 0.6280
vn -0.8731 -0.1415 0.4666
vn -0.8730 -0.1415 0.4666
vn -0.9473 -0.1415 0.2873
vn -0.9473 -0.1415 0.2874
vn -0.9852 -0.1415 0.0970
vn -0.9852 -0.1415 0.0971
vn -0.9852 -0.1415 -0.0970
vn -0.9473 -0.1415 -0.2874
vn -0.9473 -0.1415 -0.2873
vn -0.8731 -0.1415 -0.4666
vn -0.8730 -0.1415 -0.4667
vn -0.7652 -0.1415 -0.6281
vn -0.7652 -0.1415 -0.6280
vn -0.6280 -0.1415 -0.7652
vn -0.4666 -0.1415 -0.8730
vn -0.4667 -0.1415 -0.8730
vn 0.0000 1.0000 -0.0000
vn -0.2873 -0.1415 -0.9473
vn -0.2874 -0.1415 -0.9473
vn -0.0970 -0.1415 -0.9852
vn -0.0971 -0.1415 -0.9852
vn -0.9492 0.1271 0.2880
vn 0.7667 0.1271 -0.6293
vn 0.7668 0.1271 -0.6292
vn -0.9871 0.1271 0.0972
vn 0.8748 0.1271 -0.4675
vn 0.8748 0.1271 -0.4676
vn -0.9871 0.1271 -0.0972
vn -0.9871 0.1271 -0.0973
vn 0.9492 0.1271 -0.2880
vn -0.9492 0.1271 -0.2880
vn 0.9871 0.1271 -0.0972
vn -0.8748 0.1271 -0.4676
vn 0.9871 0.1271 0.0972
vn -0.7667 0.1271 -0.6293
vn -0.7668 0.1271 -0.6292
vn 0.9492 0.1271 0.2880
vn -0.6292 0.1270 -0.7668
vn -0.6293 0.1271 -0.7667
vn 0.8748 0.1271 0.4675
vn 0.8748 0.1271 0.4676
vn -0.4676 0.1271 -0.8748
vn -0.4676 0.1270 -0.8748
vn -0.4676 0.1271 -0.8747
vn -0.0973 0.1271 0.9871
vn 0.7667 0.1271 0.6293
vn -0.2879 0.1271 -0.9492
vn -0.2880 0.1271 -0.9492
vn -0.2879 0.1271 0.9492
vn 0.6292 0.1271 0.7668
vn -0.0972 0.1271 -0.9871
vn -0.0973 0.1271 -0.9871
vn -0.4676 0.1271 0.8747
vn 0.4676 0.1271 0.8747
vn 0.0972 0.1271 -0.9871
vn 0.0973 0.1271 -0.9871
vn -0.6292 0.1271 0.7668
vn -0.6293 0.1271 0.7667
vn 0.2879 0.1271 0.9492
vn 0.2879 0.1271 -0.9492
vn 0.2880 0.1271 -0.9492
vn -0.7667 0.1271 0.6293
vn 0.0973 0.1271 0.9871
vn 0.4676 0.1271 -0.8748
vn 0.4676 0.1271 -0.8747
vn -0.8748 0.1271 0.4675
vn -0.8748 0.1271 0.4676
vn 0.6292 0.1271 -0.7668
vn 0.7653 -0.1415 -0.6280
vn 0.9871 0.1271 -0.0973
vn -0.2878 0.1271 -0.9492
vn -0.2878 0.1271 0.9492
usemtl None
s 1
f 1/1/1 3/2/2 4/3/1
f 3/2/3 6/4/4 4/3/4
f 6/4/5 7/5/6 8/6/5
f 7/5/7 10/7/8 8/6/8
f 9/8/9 12/9/10 10/7/10
f 11/10/11 14/11/12 12/9/12
f 14/11/13 15/12/13 16/13/13
f 15/12/14 18/14/14 16/13/14
f 18/15/15 19/16/16 20/17/15
f 19/16/17 22/18/18 20/17/18
f 21/19/19 24/20/20 22/18/20
f 24/20/21 25/21/21 26/22/21
f 26/22/22 27/23/22 28/24/22
f 27/23/23 30/25/24 28/24/24
f 30/25/25 31/26/26 32/27/25
f 31/26/27 34/28/28 32/27/28
f 34/29/29 35/30/30 36/31/29
f 35/30/31 38/32/32 36/31/32
f 38/32/33 39/33/34 40/34/33
f 39/33/35 42/35/36 40/34/37
f 41/36/38 44/37/38 42/35/38
f 44/37/39 45/38/40 46/39/39
f 46/39/41 47/40/42 48/41/41
f 47/40/43 50/42/44 48/41/44
f 49/43/45 52/44/45 50/45/45
f 51/46/46 54/47/47 52/44/47
f 54/47/48 55/48/49 56/49/48
f 56/49/50 57/50/51 58/51/50
f 57/50/52 60/52/52 58/51/52
f 59/53/53 62/54/54 60/52/54
f 7/55/55 63/56/55 64/57/55
f 62/54/56 65/58/57 66/59/56
f 65/58/58 1/60/59 66/59/59
f 68/61/60 70/62/60 67/63/60
f 25/64/55 71/65/55 72/66/55
f 41/67/55 74/68/55 43/69/55
f 59/70/55 76/71/55 61/72/55
f 15/73/55 77/74/55 17/75/55
f 33/76/55 79/77/55 35/78/55
f 51/79/55 81/80/55 53/81/55
f 7/55/55 82/82/55 9/83/55
f 27/84/55 72/66/55 83/85/55
f 45/86/55 74/68/55 84/87/55
f 65/88/55 76/71/55 85/89/55
f 19/90/55 77/74/55 86/91/55
f 37/92/55 79/77/55 87/93/55
f 53/81/55 88/94/55 55/95/55
f 9/83/55 89/96/55 11/97/55
f 27/84/55 90/98/55 29/99/55
f 47/100/55 84/87/55 91/101/55
f 3/102/55 92/103/55 93/104/55
f 65/88/55 92/103/55 2/105/55
f 21/106/55 86/91/55 94/107/55
f 39/108/55 87/93/55 95/109/55
f 57/110/55 88/94/55 96/111/55
f 13/112/55 89/96/55 68/113/55
f 29/99/55 97/114/55 31/115/55
f 47/100/55 98/116/55 49/117/55
f 3/102/55 63/56/55 5/118/55
f 21/106/55 71/65/55 23/119/55
f 39/108/55 73/120/55 41/67/55
f 59/70/55 96/111/55 75/121/55
f 13/112/55 67/122/55 15/73/55
f 33/76/55 97/114/55 78/123/55
f 49/117/55 80/124/55 51/79/55
f 106/125/55 114/126/55 122/127/55
f 73/128/61 111/129/62 74/130/61
f 77/131/63 70/132/63 124/133/63
f 84/134/64 111/129/65 110/135/65
f 77/131/66 123/136/66 86/137/67
f 84/134/68 109/138/68 91/139/68
f 94/140/69 123/136/69 122/141/69
f 98/142/70 109/143/70 108/144/70
f 94/140/71 121/145/71 71/146/71
f 98/142/72 107/147/72 80/148/72
f 72/149/73 121/145/74 120/150/74
f 81/151/75 107/147/75 106/152/75
f 72/149/76 119/153/77 83/154/76
f 81/151/78 105/155/79 88/156/78
f 83/154/80 118/157/81 90/158/82
f 93/159/83 100/160/83 99/161/83
f 96/162/84 105/155/84 104/163/84
f 90/158/85 117/164/85 97/165/86
f 93/159/87 128/166/87 63/167/87
f 75/168/88 104/163/88 103/169/88
f 97/165/89 116/170/90 78/171/89
f 64/172/91 128/166/91 127/173/91
f 75/168/92 102/174/92 76/175/92
f 78/171/93 115/176/94 79/177/93
f 82/178/95 127/173/96 126/179/96
f 85/180/97 102/174/97 101/181/97
f 79/177/98 114/182/98 87/183/99
f 82/178/100 125/184/100 89/185/100
f 85/180/101 100/186/101 92/187/101
f 87/183/102 113/188/102 95/189/103
f 68/61/104 125/184/105 69/190/105
f 95/189/106 112/191/106 73/128/106
f 1/1/1 2/192/2 3/2/2
f 3/2/3 5/193/3 6/4/4
f 6/4/5 5/193/6 7/5/6
f 7/5/7 9/8/7 10/7/8
f 9/8/9 11/10/107 12/9/10
f 11/10/11 13/194/11 14/11/12
f 14/11/13 13/194/13 15/12/13
f 15/12/14 17/195/14 18/14/14
f 18/15/15 17/195/16 19/16/16
f 19/16/17 21/19/17 22/18/18
f 21/19/19 23/196/19 24/20/20
f 24/20/21 23/196/21 25/21/21
f 26/22/22 25/21/22 27/23/22
f 27/23/23 29/197/23 30/25/24
f 30/25/25 29/197/26 31/26/26
f 31/26/27 33/198/27 34/28/28
f 34/29/29 33/199/30 35/30/30
f 35/30/31 37/200/31 38/32/32
f 38/32/33 37/200/34 39/33/34
f 39/33/35 41/36/35 42/35/36
f 41/36/38 43/201/38 44/37/38
f 44/37/39 43/201/40 45/38/40
f 46/39/41 45/38/42 47/40/42
f 47/40/43 49/202/43 50/42/44
f 49/43/45 51/46/45 52/44/45
f 51/46/46 53/203/46 54/47/47
f 54/47/48 53/203/49 55/48/49
f 56/49/50 55/48/51 57/50/51
f 57/50/52 59/53/52 60/52/52
f 59/53/53 61/204/53 62/54/54
f 7/55/55 5/118/55 63/56/55
f 62/54/56 61/204/57 65/58/57
f 65/58/58 2/205/58 1/60/59
f 68/61/60 69/190/60 70/62/60
f 25/64/55 23/119/55 71/65/55
f 41/67/55 73/120/55 74/68/55
f 59/70/55 75/121/55 76/71/55
f 15/73/55 67/122/55 77/74/55
f 33/76/55 78/123/55 79/77/55
f 51/79/55 80/124/55 81/80/55
f 7/55/55 64/57/55 82/82/55
f 27/84/55 25/64/55 72/66/55
f 45/86/55 43/69/55 74/68/55
f 65/88/55 61/72/55 76/71/55
f 19/90/55 17/75/55 77/74/55
f 37/92/55 35/78/55 79/77/55
f 53/81/55 81/80/55 88/94/55
f 9/83/55 82/82/55 89/96/55
f 27/84/55 83/85/55 90/98/55
f 47/100/55 45/86/55 84/87/55
f 3/102/55 2/105/55 92/103/55
f 65/88/55 85/89/55 92/103/55
f 21/106/55 19/90/55 86/91/55
f 39/108/55 37/92/55 87/93/55
f 57/110/55 55/95/55 88/94/55
f 13/112/55 11/97/55 89/96/55
f 29/99/55 90/98/55 97/114/55
f 47/100/55 91/101/55 98/116/55
f 3/102/55 93/104/55 63/56/55
f 21/106/55 94/107/55 71/65/55
f 39/108/55 95/109/55 73/120/55
f 59/70/55 57/110/55 96/111/55
f 13/112/55 68/113/55 67/122/55
f 33/76/55 31/115/55 97/114/55
f 49/117/55 98/116/55 80/124/55
f 128/206/55 99/207/55 102/208/55
f 99/207/55 100/209/55 102/208/55
f 100/209/55 101/210/55 102/208/55
f 102/208/55 103/211/55 106/125/55
f 103/211/55 104/212/55 106/125/55
f 104/212/55 105/213/55 106/125/55
f 106/125/55 107/214/55 108/215/55
f 108/215/55 109/216/55 110/217/55
f 110/217/55 111/218/55 114/126/55
f 111/218/55 112/219/55 114/126/55
f 112/219/55 113/220/55 114/126/55
f 114/126/55 115/221/55 116/222/55
f 116/222/55 117/223/55 114/126/55
f 117/223/55 118/224/55 114/126/55
f 118/224/55 119/225/55 120/226/55
f 120/226/55 121/227/55 118/224/55
f 121/227/55 122/127/55 118/224/55
f 122/127/55 123/228/55 124/229/55
f 124/229/55 70/230/55 69/231/55
f 69/231/55 125/232/55 126/233/55
f 126/233/55 127/234/55 128/206/55
f 106/125/55 108/215/55 110/217/55
f 122/127/55 124/229/55 69/231/55
f 69/231/55 126/233/55 122/127/55
f 126/233/55 128/206/55 122/127/55
f 128/206/55 102/208/55 106/125/55
f 106/125/55 110/217/55 114/126/55
f 114/126/55 118/224/55 122/127/55
f 128/206/55 106/125/55 122/127/55
f 73/128/61 112/191/62 111/129/62
f 77/131/63 67/235/63 70/132/63
f 84/134/64 74/130/64 111/129/65
f 77/131/66 124/133/66 123/136/66
f 84/134/68 110/135/68 109/138/68
f 94/140/69 86/137/69 123/136/69
f 98/142/70 91/236/108 109/143/70
f 94/140/71 122/141/71 121/145/71
f 98/142/72 108/144/72 107/147/72
f 72/149/73 71/146/73 121/145/74
f 81/151/75 80/148/75 107/147/75
f 72/149/76 120/150/77 119/153/77
f 81/151/78 106/152/79 105/155/79
f 83/154/80 119/153/81 118/157/81
f 93/159/83 92/237/83 100/160/83
f 96/162/84 88/156/84 105/155/84
f 90/158/85 118/157/109 117/164/85
f 93/159/87 99/161/110 128/166/87
f 75/168/88 96/162/88 104/163/88
f 97/165/89 117/238/90 116/170/90
f 64/172/91 63/167/91 128/166/91
f 75/168/92 103/169/92 102/174/92
f 78/171/93 116/170/94 115/176/94
f 82/178/95 64/172/95 127/173/96
f 85/180/97 76/175/97 102/174/97
f 79/177/98 115/176/98 114/182/98
f 82/178/100 126/179/100 125/184/100
f 85/180/101 101/181/101 100/186/101
f 87/183/102 114/182/102 113/188/102
f 68/61/104 89/185/104 125/184/105
f 95/189/106 113/188/106 112/191/106
