# Blender v2.79 (sub 0) OBJ File: 'RunningOutOfSpace.blend'
# www.blender.org
mtllib Empire1.mtl
o Cube.006_Cube.015
v 0.104494 -0.640714 0.587122
v 0.104494 -0.640714 1.024622
v -0.481307 -0.640714 1.024622
v -0.481306 -0.640714 0.587122
v 1.019740 0.000000 -0.499021
v 1.019739 0.000000 0.500979
v -0.980261 0.000000 0.500978
v -0.980261 0.000000 -0.499022
v 0.339781 -0.609917 0.559844
v 0.339781 -0.609917 0.974847
v 1.082302 -0.046110 -0.269793
v 1.082301 -0.045865 0.427494
v -0.875973 -0.610203 0.975877
v -0.875973 -0.610203 0.559210
v -1.621511 -0.033155 0.444613
v -1.621510 -0.043806 -0.284931
v 0.738841 0.232315 -0.602486
v -0.815045 0.232315 -0.602486
v 1.180095 0.163680 -0.569785
v -1.708938 0.227246 -0.594311
v 0.738841 0.566269 -0.604874
v -0.815045 0.566269 -0.604874
v 1.190694 0.339780 -0.569957
v -1.708938 0.566792 -0.596103
v 0.842729 0.650323 -0.448457
v -0.860260 0.661132 -0.436805
v 1.233088 0.416436 -0.369460
v -1.708938 0.641181 -0.387801
v -1.113594 0.320750 0.331923
v -1.708938 0.315822 0.344995
v 1.043923 0.206385 0.477736
v 1.190693 0.162331 0.442846
v 1.058055 0.441568 0.254832
v 1.233087 0.302860 0.277560
v -1.971442 0.117475 0.194484
v -1.971441 0.105559 -0.321712
v -1.971441 0.250460 -0.495957
v -1.971441 0.497998 -0.497560
v -1.971441 0.550751 -0.328910
v -1.971442 0.315660 0.192881
v 0.787878 0.218112 -0.628941
v -0.830261 0.222610 -0.629572
v 0.787878 0.541931 -0.630733
v -0.830261 0.579678 -0.631363
v 1.387426 0.096878 -0.249452
v 1.387426 0.097043 0.123757
v 1.387426 0.165105 -0.361405
v 1.387426 0.237373 -0.362360
v 1.401557 0.266165 -0.257214
v 1.387426 0.158679 0.185733
v 1.401557 0.210876 0.099377
vt 0.165666 0.834334
vt 0.001001 0.915666
vt 0.165666 0.915666
vt 0.498999 0.001001
vt 0.334334 0.332332
vt 0.498999 0.332332
vt 0.915666 0.957332
vt 0.834334 0.917668
vt 0.834334 0.957332
vt 0.332332 0.001001
vt 0.001001 0.332332
vt 0.332332 0.332332
vt 0.915666 0.001001
vt 0.834334 0.165666
vt 0.915666 0.165666
vt 0.001001 0.334334
vt 0.332332 0.665666
vt 0.332332 0.334334
vt 0.334334 0.498999
vt 0.665666 0.334334
vt 0.334334 0.334334
vt 0.957332 0.001001
vt 0.917668 0.082332
vt 0.957332 0.082332
vt 0.167668 0.873999
vt 0.498999 0.834334
vt 0.167668 0.834334
vt 0.873999 0.167668
vt 0.834334 0.498999
vt 0.873999 0.498999
vt 0.665666 0.665666
vt 0.334334 0.501001
vt 0.334334 0.665666
vt 0.665666 0.332332
vt 0.501001 0.001001
vt 0.501001 0.332332
vt 0.915666 0.834334
vt 0.834334 0.915666
vt 0.915666 0.915666
vt 0.665666 0.915666
vt 0.501001 0.834334
vt 0.501001 0.915666
vt 0.915666 0.665666
vt 0.834334 0.501001
vt 0.834334 0.665666
vt 0.957332 0.167668
vt 0.876001 0.248999
vt 0.957332 0.248999
vt 0.665666 0.667668
vt 0.334334 0.748999
vt 0.665666 0.748999
vt 0.957332 0.084334
vt 0.917668 0.165666
vt 0.957332 0.165666
vt 0.832332 0.834334
vt 0.667668 0.915666
vt 0.832332 0.915666
vt 0.667668 0.334334
vt 0.748999 0.665666
vt 0.748999 0.334334
vt 0.832332 0.957332
vt 0.667668 0.917668
vt 0.667668 0.957332
vt 0.957332 0.582332
vt 0.917668 0.501001
vt 0.917668 0.582332
vt 0.167668 0.957332
vt 0.332332 0.876001
vt 0.167668 0.876001
vt 0.957332 0.917668
vt 0.917668 0.957332
vt 0.957332 0.957332
vt 0.957332 0.584334
vt 0.917668 0.665666
vt 0.957332 0.665666
vt 0.667668 0.667668
vt 0.832332 0.832332
vt 0.832332 0.667668
vt 0.498999 0.957332
vt 0.334334 0.876001
vt 0.334334 0.957332
vt 0.667668 0.280695
vt 0.752313 0.041333
vt 0.832332 0.290763
vt 0.001001 0.694875
vt 0.036629 0.668723
vt 0.201615 0.667668
vt 0.854753 0.667668
vt 0.854329 0.832332
vt 0.834334 0.721777
vt 0.001001 0.998999
vt 0.165666 0.917668
vt 0.001001 0.917668
vt 0.957332 0.251001
vt 0.876001 0.332332
vt 0.957332 0.332332
vt 0.876001 0.334334
vt 0.957332 0.415666
vt 0.957332 0.334334
vt 0.876001 0.417668
vt 0.957332 0.498999
vt 0.957332 0.417668
vt 0.957332 0.667668
vt 0.917668 0.748999
vt 0.957332 0.748999
vt 0.665666 0.832332
vt 0.334334 0.751001
vt 0.334334 0.832332
vt 0.751001 0.334334
vt 0.832332 0.665666
vt 0.832332 0.334334
vt 0.332332 0.992312
vt 0.293305 0.998999
vt 0.224065 0.995288
vt 0.917668 0.751001
vt 0.957332 0.832332
vt 0.957332 0.751001
vt 0.665666 0.998999
vt 0.501001 0.917668
vt 0.501001 0.998999
vt 0.957332 0.834334
vt 0.917668 0.915666
vt 0.957332 0.915666
vt 0.415666 0.998999
vt 0.334334 0.959334
vt 0.334334 0.998999
vt 0.998999 0.082332
vt 0.959334 0.001001
vt 0.959334 0.082332
vt 0.498999 0.959334
vt 0.417668 0.998999
vt 0.498999 0.998999
vt 0.001001 0.834334
vt 0.334334 0.001001
vt 0.915666 0.917668
vt 0.001001 0.001001
vt 0.834334 0.001001
vt 0.001001 0.665666
vt 0.665666 0.498999
vt 0.917668 0.001001
vt 0.498999 0.873999
vt 0.834334 0.167668
vt 0.665666 0.501001
vt 0.665666 0.001001
vt 0.834334 0.834334
vt 0.665666 0.834334
vt 0.915666 0.501001
vt 0.876001 0.167668
vt 0.334334 0.667668
vt 0.917668 0.084334
vt 0.667668 0.834334
vt 0.667668 0.665666
vt 0.832332 0.917668
vt 0.957332 0.501001
vt 0.332332 0.957332
vt 0.917668 0.917668
vt 0.917668 0.584334
vt 0.667668 0.832332
vt 0.498999 0.876001
vt 0.832332 0.001001
vt 0.774556 0.331580
vt 0.691338 0.332332
vt 0.332332 0.691462
vt 0.332332 0.832332
vt 0.116357 0.800887
vt 0.231744 0.830795
vt 0.915666 0.670530
vt 0.915666 0.743829
vt 0.834381 0.813327
vt 0.165666 0.998999
vt 0.876001 0.251001
vt 0.876001 0.415666
vt 0.876001 0.498999
vt 0.917668 0.667668
vt 0.665666 0.751001
vt 0.751001 0.665666
vt 0.167668 0.968869
vt 0.217105 0.960195
vt 0.332332 0.966461
vt 0.287196 0.959334
vt 0.917668 0.832332
vt 0.665666 0.917668
vt 0.917668 0.834334
vt 0.415666 0.959334
vt 0.998999 0.001001
vt 0.417668 0.959334
vn 0.0000 -1.0000 -0.0000
vn 0.0000 1.0000 0.0000
vn 0.1298 -0.9915 0.0000
vn 0.0000 0.6328 0.7743
vn -0.2294 0.8896 0.3950
vn 0.0000 -0.8613 -0.5081
vn 0.6049 -0.7963 0.0000
vn 0.3988 -0.7831 -0.4772
vn 0.6775 -0.2068 0.7059
vn 0.0610 -0.8814 -0.4685
vn -0.6121 -0.7908 -0.0000
vn -0.1041 -0.8660 -0.4891
vn -0.0771 -0.9970 -0.0000
vn -0.0509 0.6080 0.7923
vn -0.0376 -0.4866 -0.8728
vn 0.6074 -0.7303 -0.3127
vn -0.0000 0.4068 0.9135
vn 0.1465 -0.0055 -0.9892
vn -0.0401 -0.0053 -0.9992
vn -0.0000 0.0072 1.0000
vn -0.0415 0.9409 -0.3360
vn 0.4388 0.7081 -0.5532
vn 0.0188 0.2788 0.9602
vn 0.2529 0.0790 0.9643
vn 0.4013 0.6173 0.6767
vn 0.0019 0.9141 0.4054
vn 0.6041 0.7849 0.1378
vn 0.9540 -0.1946 0.2282
vn -0.8340 0.0039 0.5518
vn -1.0000 0.0000 0.0000
vn -0.3944 -0.9187 0.0212
vn -0.2940 -0.7349 -0.6111
vn -0.5501 0.0989 0.8292
vn -0.3503 -0.0049 -0.9366
vn -0.3680 0.8874 -0.2776
vn 0.0004 -0.0055 -1.0000
vn -0.0000 0.5118 0.8591
vn 0.9897 -0.1013 0.1007
vn 0.7195 -0.4156 0.5564
vn 0.4244 -0.9055 0.0003
vn 0.7394 0.5158 0.4328
vn 0.7089 -0.0093 -0.7053
vn 0.6147 0.7794 0.1208
vn 0.7087 0.5959 -0.3777
vn -0.2167 0.8901 0.4010
vn 0.6049 -0.7963 0.0003
vn 0.4278 -0.8003 -0.4202
vn 0.1080 0.5320 0.8398
vn 0.3641 -0.8888 -0.2782
vn -0.6131 -0.7899 0.0115
vn -0.0319 -0.8672 -0.4969
vn -0.1008 0.6003 0.7934
vn -0.1566 -0.7644 -0.6254
vn 0.0710 -0.4536 -0.8883
vn 0.1478 -0.0099 -0.9890
vn -0.0400 -0.0050 -0.9992
vn -0.0291 0.9204 -0.3898
vn 0.5294 0.7490 -0.3983
vn -0.1011 0.4307 0.8968
vn 0.5878 -0.3595 0.7248
vn 0.3557 0.6650 0.6567
vn 0.0013 0.9140 0.4058
vn 0.4956 0.8623 0.1042
vn 0.9234 0.3838 0.0000
vn 0.7003 -0.1918 0.6876
vn 0.9659 0.0019 0.2588
vn -0.4780 -0.1967 0.8561
vn -0.9963 0.0864 -0.0000
vn -0.9900 0.1236 0.0677
vn -0.9398 -0.2719 0.2070
vn -0.4034 -0.9149 0.0134
vn -0.2627 -0.7613 -0.5928
vn -0.5014 0.0070 0.8652
vn -0.3513 -0.0061 -0.9362
vn -0.3495 0.8823 -0.3151
vn 0.0003 -0.0050 -1.0000
vn 0.0011 0.5053 0.8629
vn 0.9924 -0.1232 0.0001
vn 0.9950 -0.0854 -0.0521
vn 0.9912 -0.0018 -0.1327
vn 0.9964 -0.0838 -0.0130
vn 0.7188 -0.4929 0.4902
vn 0.4243 -0.9055 0.0004
vn 0.7219 0.4248 0.5463
vn 0.7143 -0.0437 -0.6985
vn 0.5846 0.7991 0.1403
vn 0.7347 0.6226 -0.2692
usemtl Material
s off
f 2/1/1 4/2/1 1/3/1
f 8/4/2 6/5/2 5/6/2
f 1/7/3 10/8/3 2/9/3
f 2/10/4 7/11/4 3/12/4
f 28/13/5 40/14/5 30/15/5
f 1/16/6 8/17/6 5/18/6
f 9/19/7 12/20/7 10/21/7
f 11/22/8 47/23/8 45/24/8
f 6/25/9 10/26/9 12/27/9
f 5/28/10 9/29/10 1/30/10
f 15/31/11 14/32/11 13/33/11
f 8/34/12 14/35/12 16/36/12
f 4/37/13 13/38/13 14/39/13
f 7/40/14 13/41/14 3/42/14
f 8/43/15 20/44/15 42/45/15
f 5/46/16 19/47/16 11/48/16
f 17/49/17 8/50/17 5/51/17
f 23/52/18 41/53/18 43/54/18
f 24/55/19 42/56/19 20/57/19
f 21/58/20 18/59/20 17/60/20
f 26/61/21 24/62/21 28/63/21
f 25/64/22 23/65/22 43/66/22
f 15/67/23 29/68/23 30/69/23
f 6/70/24 32/71/24 31/72/24
f 31/73/25 34/74/25 33/75/25
f 28/76/26 29/77/26 26/78/26
f 27/79/27 33/80/27 34/81/27
f 26/82/28 29/83/28 8/84/28
f 25/85/29 21/86/29 17/87/29
f 36/88/30 39/89/30 37/90/30
f 16/91/31 35/92/31 36/93/31
f 20/94/32 36/95/32 37/96/32
f 30/97/33 35/98/33 15/99/33
f 20/100/34 38/101/34 24/102/34
f 28/103/35 38/104/35 39/105/35
f 42/106/36 43/107/36 41/108/36
f 41/109/37 8/110/37 5/111/37
f 51/112/38 50/113/38 46/114/38
f 12/115/39 50/116/39 32/117/39
f 11/118/40 46/119/40 12/120/40
f 34/121/41 50/122/41 51/123/41
f 19/124/42 48/125/42 47/126/42
f 27/127/43 51/128/43 49/129/43
f 27/130/44 48/131/44 23/132/44
f 2/1/1 3/133/1 4/2/1
f 8/4/2 7/134/2 6/5/2
f 1/7/3 9/135/3 10/8/3
f 2/10/4 6/136/4 7/11/4
f 28/13/45 39/137/45 40/14/45
f 1/16/6 4/138/6 8/17/6
f 9/19/46 11/139/46 12/20/46
f 11/22/47 19/140/47 47/23/47
f 6/25/48 2/141/48 10/26/48
f 5/28/49 11/142/49 9/29/49
f 15/31/50 16/143/50 14/32/50
f 8/34/51 4/144/51 14/35/51
f 4/37/13 3/145/13 13/38/13
f 7/40/52 15/146/52 13/41/52
f 8/43/53 16/147/53 20/44/53
f 5/46/54 41/148/54 19/47/54
f 17/49/17 18/149/17 8/50/17
f 23/52/55 19/150/55 41/53/55
f 24/55/56 44/151/56 42/56/56
f 21/58/20 22/152/20 18/59/20
f 26/61/57 44/153/57 24/62/57
f 25/64/58 27/154/58 23/65/58
f 15/67/59 7/155/59 29/68/59
f 6/70/60 12/156/60 32/71/60
f 31/73/61 32/157/61 34/74/61
f 28/76/62 30/158/62 29/77/62
f 27/79/63 25/159/63 33/80/63
f 29/83/64 7/160/64 8/84/64
f 8/84/65 18/161/65 26/82/65
f 18/161/66 22/162/66 26/82/66
f 17/87/67 5/163/67 25/85/67
f 5/163/68 6/164/68 33/165/68
f 6/164/69 31/166/69 33/165/69
f 33/165/70 25/85/70 5/163/70
f 36/88/30 35/167/30 40/168/30
f 40/168/30 39/89/30 36/88/30
f 39/89/30 38/169/30 37/90/30
f 16/91/71 15/170/71 35/92/71
f 20/94/72 16/171/72 36/95/72
f 30/97/73 40/172/73 35/98/73
f 20/100/74 37/173/74 38/101/74
f 28/103/75 24/174/75 38/104/75
f 42/106/76 44/175/76 43/107/76
f 41/109/77 42/176/77 8/110/77
f 46/114/78 45/177/78 51/112/78
f 45/177/79 47/178/79 49/179/79
f 47/178/80 48/180/80 49/179/80
f 49/179/81 51/112/81 45/177/81
f 12/115/82 46/181/82 50/116/82
f 11/118/83 45/182/83 46/119/83
f 34/121/84 32/183/84 50/122/84
f 19/124/85 23/184/85 48/125/85
f 27/127/86 34/185/86 51/128/86
f 27/130/87 49/186/87 48/131/87
