# Blender v2.79 (sub 0) OBJ File: 'RunningOutOfSpace.blend'
# www.blender.org
mtllib Empire2.mtl
o Cube.005_Cube.014
v -1.899849 -0.457179 0.370291
v -1.899849 0.457179 0.370291
v -1.899849 -0.457179 -0.544068
v -1.899849 0.457179 -0.544068
v -0.126354 -0.457179 0.370291
v -0.126354 0.457179 0.370291
v -0.126354 -0.457179 -0.544068
v -0.126354 0.457179 -0.544068
v 0.014510 0.457179 -0.544068
v 0.014510 -0.457179 -0.544068
v 0.014510 -0.457179 0.370291
v 0.014510 0.457179 0.370291
v 1.873646 0.457179 -0.544068
v 1.873646 -0.457179 -0.544068
v 1.873646 -0.457179 0.370291
v 1.873646 0.457179 0.370291
v 2.014510 0.457179 -0.544068
v 2.014510 -0.457179 -0.544068
v 2.014510 -0.457179 0.370291
v 2.014510 0.457179 0.370291
v -2.026160 -0.457179 -0.544068
v -2.026160 -0.457179 0.370291
v -2.026160 0.457179 0.370291
v -2.026160 0.457179 -0.544068
v -1.797457 -0.404389 0.370291
v -1.797457 0.404389 0.370291
v -0.228746 0.404389 0.370291
v -0.228746 -0.404389 0.370291
v 0.107745 0.411324 0.370291
v 0.107745 -0.411324 0.370291
v 1.780410 0.411324 0.370291
v 1.780410 -0.411324 0.370291
v -1.797457 -0.404389 0.266292
v -1.797457 0.404389 0.266292
v -0.228746 0.404389 0.266292
v -0.228746 -0.404389 0.266292
v 0.107745 0.411324 0.266292
v 0.107745 -0.411324 0.266292
v 1.780410 0.411324 0.266292
v 1.780410 -0.411324 0.266292
vt 0.572419 0.789977
vt 0.381613 0.815468
vt 0.381613 0.789977
vt 0.190806 0.789977
vt 0.381612 0.432059
vt 0.381612 0.789977
vt 0.381612 0.432059
vt 0.572419 0.403630
vt 0.572419 0.432059
vt 0.000000 0.403630
vt 0.181237 0.384814
vt 0.190806 0.403630
vt 0.572419 0.432059
vt 0.763225 0.789977
vt 0.572419 0.789977
vt 0.000000 0.432059
vt 0.011016 0.769313
vt 0.000000 0.789977
vt 0.190806 0.432059
vt 0.381612 0.403630
vt 0.190806 0.432059
vt 0.763225 0.403630
vt 0.763225 0.432059
vt 0.572419 0.028428
vt 0.763225 0.000000
vt 0.763225 0.028428
vt 0.572419 0.403630
vt 0.381612 0.403630
vt 0.572418 0.028428
vt 0.190806 0.403630
vt 0.381612 0.028428
vt 0.000000 1.000000
vt 0.190806 0.815469
vt 0.190806 1.000000
vt 0.381612 0.028428
vt 0.572418 0.000000
vt 0.190806 0.028428
vt 0.381612 0.000000
vt 0.000000 0.028428
vt 0.190806 0.000000
vt 0.190806 0.028428
vt 0.763225 0.838690
vt 0.954031 0.654159
vt 0.954031 0.838690
vt 0.572419 0.815468
vt 0.190806 0.815469
vt 0.190806 0.789977
vt 0.000000 0.815469
vt 0.975403 0.337569
vt 0.997106 0.503592
vt 0.975403 0.503592
vt 0.934893 0.000000
vt 0.956595 0.337569
vt 0.934893 0.337569
vt 0.009569 0.384814
vt 0.179790 0.452723
vt 0.011016 0.452723
vt 0.181237 0.047245
vt 0.009569 0.047245
vt 0.179790 0.769313
vt 0.931999 0.337569
vt 0.763225 0.654159
vt 0.763225 0.337569
vt 0.763225 0.337569
vt 0.934893 0.000000
vt 0.934893 0.337569
vt 0.953701 0.337569
vt 0.975403 0.654159
vt 0.953701 0.654159
vt 0.978298 0.000000
vt 1.000000 0.163224
vt 0.978298 0.163224
vt 0.978298 0.337569
vt 0.956595 0.000000
vt 0.978298 0.000000
vt 0.954031 0.654159
vt 0.975733 0.820182
vt 0.954031 0.820182
vt 0.953701 0.654159
vt 0.953701 0.337569
vt 0.975733 0.654159
vt 0.997435 0.817383
vt 0.975733 0.817383
vt 0.572419 0.815468
vt 0.572419 0.000000
vt 0.000000 0.815469
vt 0.381612 0.000000
vt 0.190806 0.000000
vt 0.000000 0.000000
vt 0.763225 0.654159
vt 0.763225 0.815468
vt 0.381612 0.815469
vt 0.190806 0.815469
vt 0.997106 0.337569
vt 0.956595 0.000000
vt 0.931999 0.654159
vt 0.763225 0.000000
vt 0.975403 0.337569
vt 1.000000 0.000000
vt 0.956596 0.337569
vt 0.975733 0.654159
vt 0.997435 0.654159
vn 0.0000 1.0000 0.0000
vn 0.0000 0.0000 -1.0000
vn 0.0000 0.0000 1.0000
vn 0.0000 -1.0000 0.0000
vn 1.0000 0.0000 0.0000
vn -1.0000 0.0000 0.0000
usemtl None
s off
f 4/1/1 23/2/1 2/3/1
f 4/4/2 7/5/2 3/6/2
f 6/7/1 9/8/1 8/9/1
f 11/10/3 29/11/3 12/12/3
f 7/13/4 1/14/4 3/15/4
f 4/1/1 6/7/1 8/9/1
f 5/16/3 25/17/3 1/18/3
f 8/19/2 10/20/2 7/5/2
f 5/16/3 12/12/3 6/21/3
f 7/13/4 11/22/4 5/23/4
f 14/24/4 19/25/4 15/26/4
f 10/27/4 15/26/4 11/22/4
f 12/28/1 13/29/1 9/8/1
f 9/30/2 14/31/2 10/20/2
f 17/32/5 19/33/5 18/34/5
f 16/35/1 17/36/1 13/29/1
f 13/37/2 18/38/2 14/31/2
f 15/39/3 20/40/3 16/41/3
f 23/42/6 21/43/6 22/44/6
f 1/14/4 21/45/4 3/15/4
f 3/6/2 24/46/2 4/4/2
f 2/47/3 22/48/3 1/18/3
f 30/49/5 37/50/5 29/51/5
f 32/52/1 38/53/1 30/54/1
f 15/39/3 30/55/3 11/10/3
f 2/47/3 27/56/3 6/21/3
f 6/21/3 28/57/3 5/16/3
f 12/12/3 31/58/3 16/41/3
f 16/41/3 32/59/3 15/39/3
f 1/18/3 26/60/3 2/47/3
f 35/61/3 33/62/3 36/63/3
f 38/64/3 39/65/3 37/66/3
f 28/67/1 33/68/1 25/69/1
f 25/70/5 34/71/5 26/72/5
f 29/73/4 39/74/4 31/75/4
f 31/76/6 40/77/6 32/78/6
f 26/79/4 35/61/4 27/80/4
f 27/81/6 36/82/6 28/83/6
f 4/1/1 24/84/1 23/2/1
f 4/4/2 8/19/2 7/5/2
f 6/7/1 12/28/1 9/8/1
f 11/10/3 30/55/3 29/11/3
f 7/13/4 5/23/4 1/14/4
f 4/1/1 2/3/1 6/7/1
f 5/16/3 28/57/3 25/17/3
f 8/19/2 9/30/2 10/20/2
f 5/16/3 11/10/3 12/12/3
f 7/13/4 10/27/4 11/22/4
f 14/24/4 18/85/4 19/25/4
f 10/27/4 14/24/4 15/26/4
f 12/28/1 16/35/1 13/29/1
f 9/30/2 13/37/2 14/31/2
f 17/32/5 20/86/5 19/33/5
f 16/35/1 20/87/1 17/36/1
f 13/37/2 17/88/2 18/38/2
f 15/39/3 19/89/3 20/40/3
f 23/42/6 24/90/6 21/43/6
f 1/14/4 22/91/4 21/45/4
f 3/6/2 21/92/2 24/46/2
f 2/47/3 23/93/3 22/48/3
f 30/49/5 38/94/5 37/50/5
f 32/52/1 40/95/1 38/53/1
f 15/39/3 32/59/3 30/55/3
f 2/47/3 26/60/3 27/56/3
f 6/21/3 27/56/3 28/57/3
f 12/12/3 29/11/3 31/58/3
f 16/41/3 31/58/3 32/59/3
f 1/18/3 25/17/3 26/60/3
f 35/61/3 34/96/3 33/62/3
f 38/64/3 40/97/3 39/65/3
f 28/67/1 36/98/1 33/68/1
f 25/70/5 33/99/5 34/71/5
f 29/73/4 37/100/4 39/74/4
f 31/76/6 39/101/6 40/77/6
f 26/79/4 34/96/4 35/61/4
f 27/81/6 35/102/6 36/82/6
