# Blender v2.79 (sub 0) OBJ File: 'RunningOutOfSpace.blend'
# www.blender.org
mtllib RunningOutOfSpace.mtl
o Cube
v 1.000000 -1.000000 -0.500000
v 1.000000 -1.000000 0.500000
v -1.000000 -1.000000 0.500000
v -1.000000 -1.000000 -0.500000
v 2.000001 0.000000 -0.999999
v 1.999999 0.000000 1.000001
v -2.000001 0.000000 1.000000
v -2.000000 0.000000 -1.000000
v 1.945014 0.000000 -0.943968
v 1.945012 0.000000 0.943969
v -1.945013 0.000000 -0.943968
v -1.945014 0.000000 0.943968
v 1.945014 -0.019571 -0.943968
v 1.945012 -0.019571 0.943969
v -1.945013 -0.019571 -0.943968
v -1.945014 -0.019571 0.943968
v 1.917652 -0.019571 -0.894697
v 1.917651 -0.019571 -0.451163
v 1.541019 -0.019571 -0.894697
v 1.541019 -0.019571 -0.451163
v 1.917652 0.552374 -0.894697
v 1.917651 0.552374 -0.451163
v 1.541019 0.552374 -0.894697
v 1.541019 0.552374 -0.451163
v 1.886093 0.552374 -0.860213
v 1.886093 0.552374 -0.485647
v 1.572578 0.552374 -0.860213
v 1.572578 0.552374 -0.485647
v 1.886093 0.705958 -0.860213
v 1.886093 0.705958 -0.485647
v 1.572578 0.705958 -0.860213
v 1.572578 0.705958 -0.485647
vt 0.790000 0.010000
vt 0.410000 0.190000
vt 0.790000 0.190000
vt 0.840000 0.010000
vt 0.810000 0.390000
vt 0.840000 0.390000
vt 0.610000 0.410000
vt 0.790000 0.590000
vt 0.790000 0.410000
vt 0.790000 0.210000
vt 0.410000 0.390000
vt 0.790000 0.390000
vt 0.790000 0.610000
vt 0.610000 0.790000
vt 0.790000 0.790000
vt 0.410000 0.410000
vt 0.590000 0.790000
vt 0.590000 0.410000
vt 0.790000 0.840000
vt 0.410000 0.810000
vt 0.410000 0.840000
vt 0.840000 0.790000
vt 0.810000 0.410000
vt 0.810000 0.790000
vt 0.790000 0.890000
vt 0.410000 0.860000
vt 0.410000 0.890000
vt 0.890000 0.390000
vt 0.860000 0.010000
vt 0.860000 0.390000
vt 0.010000 0.010000
vt 0.390000 0.390000
vt 0.390000 0.010000
vt 0.790000 0.940000
vt 0.410000 0.910000
vt 0.410000 0.940000
vt 0.890000 0.410000
vt 0.860000 0.790000
vt 0.890000 0.790000
vt 0.790000 0.990000
vt 0.410000 0.960000
vt 0.410000 0.990000
vt 0.810000 0.810000
vt 0.890000 0.890000
vt 0.890000 0.810000
vt 0.990000 0.010000
vt 0.910000 0.190000
vt 0.990000 0.190000
vt 0.390000 0.990000
vt 0.010000 0.810000
vt 0.010000 0.990000
vt 0.390000 0.410000
vt 0.010000 0.790000
vt 0.390000 0.790000
vt 0.910000 0.560000
vt 0.940000 0.590000
vt 0.940000 0.560000
vt 0.910000 0.310000
vt 0.940000 0.390000
vt 0.940000 0.310000
vt 0.890000 0.910000
vt 0.810000 0.940000
vt 0.890000 0.940000
vt 0.910000 0.210000
vt 0.990000 0.290000
vt 0.990000 0.210000
vt 0.910000 0.610000
vt 0.940000 0.640000
vt 0.940000 0.610000
vt 0.940000 0.490000
vt 0.910000 0.410000
vt 0.910000 0.490000
vt 0.990000 0.540000
vt 0.910000 0.510000
vt 0.910000 0.540000
vt 0.910000 0.660000
vt 0.940000 0.690000
vt 0.940000 0.660000
vt 0.910000 0.710000
vt 0.940000 0.740000
vt 0.940000 0.710000
vt 0.910000 0.760000
vt 0.940000 0.790000
vt 0.940000 0.760000
vt 0.910000 0.810000
vt 0.940000 0.840000
vt 0.940000 0.810000
vt 0.910000 0.860000
vt 0.940000 0.890000
vt 0.940000 0.860000
vt 0.410000 0.010000
vt 0.810000 0.010000
vt 0.610000 0.590000
vt 0.410000 0.210000
vt 0.610000 0.610000
vt 0.410000 0.790000
vt 0.790000 0.810000
vt 0.840000 0.410000
vt 0.790000 0.860000
vt 0.890000 0.010000
vt 0.010000 0.390000
vt 0.790000 0.910000
vt 0.860000 0.410000
vt 0.790000 0.960000
vt 0.810000 0.890000
vt 0.910000 0.010000
vt 0.390000 0.810000
vt 0.010000 0.410000
vt 0.910000 0.590000
vt 0.910000 0.390000
vt 0.810000 0.910000
vt 0.910000 0.290000
vt 0.910000 0.640000
vt 0.940000 0.410000
vt 0.990000 0.510000
vt 0.910000 0.690000
vt 0.910000 0.740000
vt 0.910000 0.790000
vt 0.910000 0.840000
vt 0.910000 0.890000
vn 0.0000 -1.0000 0.0000
vn 0.0000 1.0000 0.0000
vn 0.7071 -0.7071 0.0000
vn 0.0000 -0.4472 0.8944
vn -0.7071 -0.7071 -0.0000
vn 0.0000 -0.4472 -0.8944
vn 0.0000 0.0000 -1.0000
vn -1.0000 0.0000 -0.0000
vn 1.0000 0.0000 0.0000
vn -0.0000 0.0000 1.0000
usemtl Material
s off
f 2/1/1 4/2/1 1/3/1
f 7/4/2 11/5/2 8/6/2
f 5/7/3 2/8/3 1/9/3
f 6/10/4 3/11/4 2/12/4
f 3/13/5 8/14/5 4/15/5
f 1/16/6 8/17/6 5/18/6
f 10/19/7 16/20/7 12/21/7
f 5/22/2 11/23/2 9/24/2
f 6/25/2 12/26/2 7/27/2
f 6/28/2 9/29/2 10/30/2
f 14/31/2 20/32/2 16/33/2
f 9/34/8 14/35/8 10/36/8
f 12/37/9 15/38/9 11/39/9
f 11/40/10 13/41/10 9/42/10
f 20/43/8 23/44/8 19/45/8
f 13/46/2 18/47/2 14/48/2
f 15/49/2 20/50/2 19/51/2
f 13/52/2 19/53/2 17/54/2
f 22/55/2 28/56/2 24/57/2
f 19/58/7 21/59/7 17/60/7
f 18/61/10 24/62/10 20/63/10
f 17/64/9 22/65/9 18/66/9
f 25/67/9 30/68/9 26/69/9
f 22/70/2 25/71/2 26/72/2
f 24/73/2 27/74/2 23/75/2
f 23/76/2 25/77/2 21/78/2
f 31/79/2 30/80/2 29/81/2
f 28/82/8 31/83/8 27/84/8
f 27/85/7 29/86/7 25/87/7
f 26/88/10 32/89/10 28/90/10
f 2/1/1 3/91/1 4/2/1
f 7/4/2 12/92/2 11/5/2
f 5/7/3 6/93/3 2/8/3
f 6/10/4 7/94/4 3/11/4
f 3/13/5 7/95/5 8/14/5
f 1/16/6 4/96/6 8/17/6
f 10/19/7 14/97/7 16/20/7
f 5/22/2 8/98/2 11/23/2
f 6/25/2 10/99/2 12/26/2
f 6/28/2 5/100/2 9/29/2
f 14/31/2 18/101/2 20/32/2
f 9/34/8 13/102/8 14/35/8
f 12/37/9 16/103/9 15/38/9
f 11/40/10 15/104/10 13/41/10
f 20/43/8 24/105/8 23/44/8
f 13/46/2 17/106/2 18/47/2
f 15/49/2 16/107/2 20/50/2
f 13/52/2 15/108/2 19/53/2
f 22/55/2 26/109/2 28/56/2
f 19/58/7 23/110/7 21/59/7
f 18/61/10 22/111/10 24/62/10
f 17/64/9 21/112/9 22/65/9
f 25/67/9 29/113/9 30/68/9
f 22/70/2 21/114/2 25/71/2
f 24/73/2 28/115/2 27/74/2
f 23/76/2 27/116/2 25/77/2
f 31/79/2 32/117/2 30/80/2
f 28/82/8 32/118/8 31/83/8
f 27/85/7 31/119/7 29/86/7
f 26/88/10 30/120/10 32/89/10
