# Blender v2.79 (sub 0) OBJ File: 'RunningOutOfSpace.blend'
# www.blender.org
mtllib Station2.mtl
o Cube
v -1.000000 -1.000000 0.500000
v -2.000001 0.000000 1.000000
v -1.945014 0.000000 0.943968
v -1.945014 -0.019571 0.943968
v 0.000000 -1.000000 0.500000
v -0.000001 0.000000 1.000000
v -0.000001 0.000000 0.943969
v -0.000001 -0.019571 0.943969
v -0.201997 -0.019571 0.246402
v -2.000000 0.000000 -0.000000
v -1.945013 0.000000 -0.000000
v -1.945013 -0.019571 -0.000000
v -0.201997 -0.019571 -0.336465
vt 0.994300 0.698026
vt 0.719402 0.678835
vt 0.994300 0.678835
vt 0.377495 0.698026
vt 0.703084 0.349013
vt 0.703084 0.698027
vt 0.005699 1.000000
vt 0.000000 0.670543
vt 0.005699 0.670543
vt 0.017689 0.051339
vt 0.167667 0.638842
vt 0.000000 0.670543
vt 0.289230 0.000000
vt 0.377495 0.670542
vt 0.703084 0.000000
vt 0.703084 0.698026
vt 0.994300 0.000000
vt 1.000000 0.678835
vt 0.994301 0.678835
vt 0.377495 0.000000
vt 0.000000 1.000000
vt 0.719402 0.000000
vt 1.000000 0.000000
vn 0.0000 1.0000 0.0000
vn 0.0000 -0.4472 0.8944
vn 1.0000 0.0000 0.0000
vn 0.0000 0.0000 -1.0000
usemtl Material
s off
f 10/1/1 3/2/1 11/3/1
f 6/4/2 1/5/2 5/6/2
f 3/7/3 12/8/3 11/9/3
f 12/10/1 9/11/1 13/12/1
f 4/13/1 8/14/1 9/11/1
f 6/15/1 3/2/1 2/16/1
f 7/17/4 4/18/4 3/19/4
f 10/1/1 2/16/1 3/2/1
f 6/4/2 2/20/2 1/5/2
f 3/7/3 4/21/3 12/8/3
f 12/10/1 4/13/1 9/11/1
f 6/15/1 7/22/1 3/2/1
f 7/17/4 8/23/4 4/18/4
