# Blender v2.79 (sub 0) OBJ File: 'RunningOutOfSpace.blend'
# www.blender.org
mtllib Station3.mtl
o Cube.003_Cube.011
v 1.000000 -1.000000 0.500000
v 1.999999 0.000000 1.000001
v 1.945012 0.000000 0.943969
v 1.945012 -0.019571 0.943969
v 0.000000 -1.000000 0.500000
v -0.000001 0.000000 1.000000
v -0.000001 0.000000 0.943969
v -0.000001 -0.019571 0.943969
v -0.201997 -0.019571 0.246402
v 2.000000 0.000000 0.000001
v 1.945013 0.000000 0.000001
v 1.945013 -0.019571 0.000001
v 1.931332 -0.019571 0.246403
v 0.669511 -0.019571 -0.102380
vt 0.993853 0.000000
vt 1.000000 0.660677
vt 0.993853 0.660677
vt 0.993853 0.000000
vt 0.976255 0.660677
vt 0.976255 0.000000
vt 0.328632 0.339677
vt 0.679778 0.679355
vt 0.328632 0.679355
vt 0.328632 0.729291
vt 0.032155 0.729291
vt 0.109544 0.724644
vt 0.328632 0.679355
vt 0.334779 1.000000
vt 0.328632 1.000000
vt 0.000000 0.296032
vt 0.679778 0.679355
vt 0.993853 0.679355
vt 1.000000 0.000000
vt 0.679778 0.000000
vt 0.334779 0.679355
vt 0.109544 0.000000
vt 0.328632 0.068614
vt 0.679778 0.660678
vn 0.0000 0.0000 -1.0000
vn 0.0000 1.0000 0.0000
vn 0.0000 -0.4472 0.8944
vn -1.0000 0.0000 -0.0000
usemtl Material
s off
f 3/1/1 8/2/1 7/3/1
f 6/4/2 3/5/2 7/6/2
f 1/7/3 6/8/3 5/9/3
f 4/10/2 12/11/2 13/12/2
f 11/13/4 4/14/4 3/15/4
f 4/10/2 13/12/2 14/16/2
f 10/17/2 3/5/2 2/18/2
f 3/1/1 4/19/1 8/2/1
f 6/4/2 2/18/2 3/5/2
f 1/7/3 2/20/3 6/8/3
f 11/13/4 12/21/4 4/14/4
f 9/22/2 8/23/2 14/16/2
f 8/23/2 4/10/2 14/16/2
f 10/17/2 11/24/2 3/5/2
